<?xml version="1.0" encoding="utf-8"?>
<!-- Generator: Adobe Illustrator 21.1.0, SVG Export Plug-In . SVG Version: 6.00 Build 0)  -->
<svg version="1.1" baseProfile="tiny" id="Layer_1" xmlns="http://www.w3.org/2000/svg" xmlns:xlink="http://www.w3.org/1999/xlink"
	 x="0px" y="0px" width="120px" viewBox="0 0 640 640" xml:space="preserve">
<path fill="#25C252" d="M131.8,262.5c-6.9,0-13.3,2.6-18.2,7.5c0,0,0,0,0,0l0,0l-32.7,33.9l-0.1,0.1c-4,4-9.2,6.2-14.8,6.2
	c-11.5,0-20.9-9.5-20.9-21.2c0-11.7,9.4-21.2,20.9-21.2c9.6,0,17.9,6.7,20.3,15.9l4.1-4.3c-3.8-9.9-13.4-16.9-24.4-16.9
	c-14.4,0-26.1,11.8-26.1,26.4c0,14.6,11.7,26.4,26.1,26.4c6.8,0,13.3-2.6,18.2-7.5h0l0,0l32.6-33.8l0,0l0,0l0.1-0.1
	c4-4,9.2-6.2,14.8-6.2c11.5,0,20.9,9.5,20.9,21.2c0,11.7-9.4,21.2-20.9,21.2c-9.6,0-17.9-6.7-20.3-15.9l-4.1,4.3
	c3.8,9.9,13.4,16.8,24.4,16.8c14.4,0,26.1-11.8,26.1-26.4C158,274.4,146.2,262.5,131.8,262.5"/>
<polygon fill="#25C252" points="68.4,290.6 63.6,288.4 83.7,242.8 97.9,242.8 97.9,248 87.1,248 "/>
<text transform="matrix(1 0 0 1 164.9486 314.0063)" fill="#25C252" font-family="'FiraSans-Regular'" font-size="94.7567px">BikeSpace</text>
</svg>
