<?xml version="1.0" encoding="utf-8"?>
<!-- Generator: Adobe Illustrator 21.1.0, SVG Export Plug-In . SVG Version: 6.00 Build 0)  -->
<svg version="1.1" baseProfile="tiny" id="Layer_1" xmlns="http://www.w3.org/2000/svg" xmlns:xlink="http://www.w3.org/1999/xlink"
	 x="0px" y="0px" viewBox="0 0 640 640" xml:space="preserve">
<path fill="none" stroke="#25C252" stroke-width="22.4442" stroke-miterlimit="10" d="M327.2,548C195.3,552.3,87.1,444.1,91.4,312.2
	c3.9-119.7,101-216.8,220.7-220.7C444,87.3,552.2,195.5,547.9,327.4C544,447,446.9,544.2,327.2,548z"/>
<path fill="#25C252" d="M116.3,319.8c0,112.3,91.1,203.4,203.4,203.4C432,523.2,523,432.1,523,319.8S432,116.4,319.7,116.4
	C207.4,116.4,116.3,207.5,116.3,319.8"/>
<path fill="#FFFFFF" d="M410,258.1c-18.8,0-36.6,7.3-50,20.5c0,0,0,0,0,0l0,0l-89.8,93.1l-0.2,0.2c-10.9,11-25.3,17-40.6,17
	c-31.7,0-57.5-26.1-57.5-58.2c0-32.1,25.8-58.2,57.5-58.2c26.5,0,49.3,18.5,55.7,43.7l11.3-11.7c-10.5-27.2-36.8-46.4-67-46.4
	c-39.6,0-71.9,32.6-71.9,72.6c0,40,32.3,72.6,71.9,72.6c18.8,0,36.5-7.3,50-20.5h0l0,0l89.7-93l0,0l0.1-0.1l0.2-0.2
	c10.9-11,25.3-17,40.6-17c31.7,0,57.5,26.1,57.5,58.2c0,32.1-25.8,58.2-57.5,58.2c-26.5,0-49.3-18.5-55.7-43.7L343,356.9
	c10.5,27.2,36.8,46.3,67,46.3c39.6,0,71.9-32.6,71.9-72.6C481.9,290.6,449.7,258.1,410,258.1"/>
<polygon fill="#FFFFFF" points="235.7,335.1 222.5,329.3 277.8,203.8 316.7,203.8 316.7,218.2 287.2,218.2 "/>
</svg>
