<svg id="search_expand" xmlns="http://www.w3.org/2000/svg" viewBox="0 0 144 144"><defs><style>.cls-1{fill:#25c252;}</style></defs><title>search_icon</title><path class="cls-1" d="M135.9,123.7,100,87.8a1.9,1.9,0,0,0-2.8,0l-2.3,2.3L91.8,87a47.9,47.9,0,1,0-2.7,3L92,92.9l-2.3,2.4a1.9,1.9,0,0,0,0,2.8L125.6,134a1.9,1.9,0,0,0,2.8,0l7.5-7.5A1.9,1.9,0,0,0,135.9,123.7ZM55,100.4A43.5,43.5,0,1,1,98.5,56.9,43.5,43.5,0,0,1,55,100.4Zm72,29.3-33.1-33L98.6,92l33.1,33.1Z"/><path class="cls-1" d="M71.8,22a38.3,38.3,0,0,0-17.3-4.1A39.2,39.2,0,0,0,15.4,57.1a40.5,40.5,0,0,0,.8,7.8,1.9,1.9,0,0,0,1.9,1.6h.4a2.1,2.1,0,0,0,1.6-2.4,33.3,33.3,0,0,1-.7-7A35.2,35.2,0,0,1,70.1,25.5a1.9,1.9,0,0,0,2.6-.9A1.9,1.9,0,0,0,71.8,22Z"/><path class="cls-1" d="M22.1,70.9a2,2,0,0,0-2.6-1,2,2,0,0,0-1,2.7A40.5,40.5,0,0,0,24,81.4a2.1,2.1,0,0,0,2.9.2,2,2,0,0,0,.2-2.8A36.3,36.3,0,0,1,22.1,70.9Z"/></svg>