<svg id="hopeful2_expand" xmlns="http://www.w3.org/2000/svg" viewBox="0 0 144 144"><defs><style>.cls-1{fill:#25c252;}</style></defs><title>update_icon_02</title><path class="cls-1" d="M136.1,68.2c0-7.4-7.2-9.9-11-10.2H104V40.7h1.7A14.5,14.5,0,1,0,112,26l-1.6-1.8,2.5-5.2h3.9a2,2,0,1,0,0-4h-9.3a2,2,0,0,0,0,4h.9l-1.5,3.1H93.5l4.1-7.8h3.1a2,2,0,0,0,2-2,1.9,1.9,0,0,0-2-2H96.3a1.9,1.9,0,0,0-1.7,1L87.8,24.4a15.3,15.3,0,0,0-4.9-.8A14.6,14.6,0,1,0,97.6,38.2c0-.4-.1-.8-.1-1.2l2.2,2.9h0l.3.2V58H97.1a22.9,22.9,0,0,0-3-.2H69.6c-12.1,0-21.3,9.7-23.7,12.5H41.3V67.8a2,2,0,0,0-2-2H9.9a2,2,0,0,0-2,2v57a2,2,0,0,0,2,2H39.3a2,2,0,0,0,2-2v-3.1h3.4c8.3,11,21.8,12.1,26.6,12.1h40.5a10.5,10.5,0,0,0,10.5-10.5,10.3,10.3,0,0,0-3-7.3c3.8-1.3,8-4.4,8-10.2a10.5,10.5,0,0,0-3.3-8c4.3-1.4,7.7-4.7,7.7-10.5a10.1,10.1,0,0,0-3.5-7.7C132.3,78.3,136.1,75,136.1,68.2ZM115.8,36.7h-6.2a10.3,10.3,0,0,1,2.1-4.9Zm4.3-9.1a10.6,10.6,0,1,1-10.3,13.1h10.3a2.2,2.2,0,0,0,1.9-1.2,2,2,0,0,0-.3-2.1l-7.1-8.3A10.3,10.3,0,0,1,120.1,27.6Zm-11.6.5.5.6a14.9,14.9,0,0,0-3.4,8h-1.1ZM82.9,48.8a10.6,10.6,0,0,1,0-21.2A10.6,10.6,0,0,1,86,28l-4.8,9.3A2,2,0,0,0,82,40l.9.2a1.9,1.9,0,0,0,1.8-1.1l4.8-9.3a10.6,10.6,0,0,1-6.6,19ZM94.3,26.1H105l-4.1,8.7Zm-57,96.7H11.9v-53H37.3Zm35.5,6.9h-.1c-.2,0-16.8,1.1-25.4-11.1a1.8,1.8,0,0,0-1.6-.9H41.3V74.3h5.5a2.4,2.4,0,0,0,1.6-.7c.1-.2,9.3-11.8,21.2-11.8H94.3s5.1-.2,8.4,3,3.1,4.9,3.1,8.7v26a5.5,5.5,0,0,1-1.8,3.4,5.9,5.9,0,0,1-4.7.6c-7.9-1.6-9.3-8.9-9.5-11.9-.4-4.9-.5-13.3-.5-13.4a2,2,0,0,0-2-2h0a2,2,0,0,0-2,1.9c0,.9-1.4,22.4-24.4,21.6a2.1,2.1,0,0,0-2.1,1.9,2,2,0,0,0,1.9,2.1c14.3.5,21.4-6.5,25-13.3a7.6,7.6,0,0,1,.1,1.5c.2,2.1,1,7.5,4.9,11.4a9.5,9.5,0,0,0,0,7.4,8.2,8.2,0,0,0,1.2,2h-.3a10.6,10.6,0,0,0-8.3,17Zm39,0H91.6a6.5,6.5,0,0,1,0-13h20.2a6.5,6.5,0,1,1,0,13Zm3.6-17H98.5a7.8,7.8,0,0,1-4.2-3.6,5.3,5.3,0,0,1-.2-3.3,14,14,0,0,0,4.5,1.6,11.5,11.5,0,0,0,2.6.3,8.9,8.9,0,0,0,5.2-1.6,9.2,9.2,0,0,0,3.4-6.3V98.3h7.1c1,.2,6.4,1.5,6.4,7.4S116.3,112.6,115.4,112.7Zm4.2-18.4h-9.8V80h11.7c1.2.4,6.2,2.5,6.2,7.2C127.7,94,120.9,94.3,119.6,94.3ZM124.7,76H109.8V73.5c0-4.9-1.4-8.7-4.2-11.5h19.3c.7.1,7.2.8,7.2,6.2C132.1,75.2,126.9,76,124.7,76Z"/></svg>