<?xml version="1.0" encoding="UTF-8" standalone="no"?>
<svg
   width="375px"
   height="375px"
   viewBox="0 0 375 375"
   version="1.1"
   id="svg406"
   sodipodi:docname="null.svg"
   inkscape:version="1.2.1 (9c6d41e, 2022-07-14)"
   inkscape:export-filename="null.png"
   inkscape:export-xdpi="96"
   inkscape:export-ydpi="96"
   xmlns:inkscape="http://www.inkscape.org/namespaces/inkscape"
   xmlns:sodipodi="http://sodipodi.sourceforge.net/DTD/sodipodi-0.dtd"
   xmlns="http://www.w3.org/2000/svg"
   xmlns:svg="http://www.w3.org/2000/svg">
  <defs
     id="defs410" />
  <sodipodi:namedview
     id="namedview408"
     pagecolor="#ffffff"
     bordercolor="#000000"
     borderopacity="0.25"
     inkscape:showpageshadow="2"
     inkscape:pageopacity="0.0"
     inkscape:pagecheckerboard="0"
     inkscape:deskcolor="#d1d1d1"
     showgrid="false"
     inkscape:zoom="0.62933333"
     inkscape:cx="186.70551"
     inkscape:cy="187.5"
     inkscape:window-width="1280"
     inkscape:window-height="456"
     inkscape:window-x="10"
     inkscape:window-y="207"
     inkscape:window-maximized="0"
     inkscape:current-layer="svg406" />
  <path
     d="m 188.29449,348.9293 a 160.63481,160.63481 0 1 1 0,-321.269612 160.63481,160.63481 0 0 1 0,321.269612 m 0,22.94783 a 183.58263,183.58263 0 1 0 0,-367.1652627 183.58263,183.58263 0 0 0 0,367.1652627"
     id="path262"
     style="stroke-width:22.9478" />
  <path
     d="m 125.30271,137.488 a 5.4386352,5.4386352 0 0 0 5.53041,5.66811 h 18.93198 c 3.16678,0 5.69106,-2.5931 6.10412,-5.73695 2.06531,-15.05378 12.39183,-26.02285 30.79597,-26.02285 15.74222,0 30.15345,7.87111 30.15345,26.80306 0,14.57189 -8.58248,21.27263 -22.14465,31.46148 -15.44387,11.2215 -27.67508,24.3247 -26.80306,45.59733 l 0.0687,4.97969 a 5.736957,5.736957 0 0 0 5.73695,5.64517 h 18.6107 a 5.736957,5.736957 0 0 0 5.73695,-5.73697 v -2.40952 c 0,-16.47652 6.26477,-21.27263 23.1773,-34.10047 13.97524,-10.62484 28.5471,-22.42004 28.5471,-47.18075 0,-34.67417 -29.28143,-51.426074 -61.33955,-51.426074 -29.07489,0 -60.92646,13.539211 -63.10651,52.458744 m 35.72977,132.24834 c 0,12.23121 9.75282,21.27265 23.1773,21.27265 13.97522,0 23.59037,-9.04144 23.59037,-21.27265 0,-12.66719 -9.63808,-21.57096 -23.61333,-21.57096 -13.40152,0 -23.15434,8.90377 -23.15434,21.57096"
     id="path264"
     style="stroke-width:22.9478" />
</svg>
