<?xml version="1.0" encoding="UTF-8" standalone="no"?>
<!-- Created with Inkscape (http://www.inkscape.org/) -->

<svg
   width="96"
   height="140"
   viewBox="0 0 24 35"
   version="1.1"
   id="svg5"
   inkscape:version="1.2.1 (9c6d41e, 2022-07-14)"
   sodipodi:docname="parking_bollard.svg"
   xml:space="preserve"
   inkscape:export-filename="parking_bollard.png"
   inkscape:export-xdpi="300"
   inkscape:export-ydpi="300"
   xmlns:inkscape="http://www.inkscape.org/namespaces/inkscape"
   xmlns:sodipodi="http://sodipodi.sourceforge.net/DTD/sodipodi-0.dtd"
   xmlns="http://www.w3.org/2000/svg"
   xmlns:svg="http://www.w3.org/2000/svg"><sodipodi:namedview
     id="namedview7"
     pagecolor="#ffffff"
     bordercolor="#000000"
     borderopacity="0.25"
     inkscape:showpageshadow="2"
     inkscape:pageopacity="0.0"
     inkscape:pagecheckerboard="0"
     inkscape:deskcolor="#d1d1d1"
     inkscape:document-units="mm"
     showgrid="false"
     inkscape:zoom="3"
     inkscape:cx="49.166667"
     inkscape:cy="62.833333"
     inkscape:window-width="1280"
     inkscape:window-height="771"
     inkscape:window-x="0"
     inkscape:window-y="33"
     inkscape:window-maximized="0"
     inkscape:current-layer="layer1" /><defs
     id="defs2"><pattern
       patternUnits="userSpaceOnUse"
       width="8.256"
       height="15.856"
       patternTransform="translate(57.810664,32.72)"
       id="pattern10817"><text
         xml:space="preserve"
         style="font-style:normal;font-variant:normal;font-weight:bold;font-stretch:normal;font-size:16px;font-family:'Open Sans';-inkscape-font-specification:'Open Sans Bold';fill:#000000;fill-opacity:1;stroke:none;stroke-width:5.66928;stroke-linecap:round;stroke-linejoin:miter;stroke-dasharray:none;stroke-opacity:1"
         x="-0.14399999"
         y="13.28"
         id="text10815"><tspan
           sodipodi:role="line"
           id="tspan10813"
           style="font-style:normal;font-variant:normal;font-weight:bold;font-stretch:normal;font-family:'Fira Sans';-inkscape-font-specification:'Fira Sans Bold';fill:#000000;fill-opacity:1;stroke-width:5.66928"
           x="-0.14399999"
           y="13.28">$</tspan></text></pattern></defs><g
     inkscape:label="Layer 1"
     inkscape:groupmode="layer"
     id="layer1"><path
       id="rect466"
       style="fill:#ffffff;stroke:#136329;stroke-width:2.59515;stroke-linecap:round;stroke-linejoin:bevel;stroke-dasharray:none"
       d="m 5.2863174,1.2975735 c -2.2096748,0 -3.9887425,2.1359035 -3.9887425,4.788783 V 22.20691 c 0,2.652879 1.7790677,4.788783 3.9887425,4.788783 H 10.16064 c 0.383285,1.664727 0.884833,6.706734 1.643476,6.706734 0.758647,0 1.260678,-5.042032 1.643961,-6.706734 h 5.265605 c 2.209674,0 3.988743,-2.135904 3.988743,-4.788783 V 6.0863566 c 0,-2.6528796 -1.779069,-4.7887831 -3.988743,-4.7887831 z" /><path
       id="path1-7"
       style="fill:none;stroke:#000000;stroke-width:1.18891;stroke-linecap:round;stroke-linejoin:round;stroke-dasharray:none"
       d="M 16.129659,10.301395 A 4.1296583,4.1296583 0 0 1 12,14.431053 4.1296583,4.1296583 0 0 1 7.8703414,10.301395 4.1296583,4.1296583 0 0 1 12,6.1717366 4.1296583,4.1296583 0 0 1 16.129659,10.301395 Z M 12,4.7085273 V 18.99443"
       inkscape:label="ringandpost" /></g></svg>
