<?xml version="1.0" encoding="UTF-8" standalone="no"?>
<!-- Created with Inkscape (http://www.inkscape.org/) -->

<svg
   width="96"
   height="140"
   viewBox="0 0 24 35"
   version="1.1"
   id="svg5"
   inkscape:version="1.2.1 (9c6d41e, 2022-07-14)"
   sodipodi:docname="parking_rack.svg"
   xml:space="preserve"
   inkscape:export-filename="parking_rack.png"
   inkscape:export-xdpi="300"
   inkscape:export-ydpi="300"
   xmlns:inkscape="http://www.inkscape.org/namespaces/inkscape"
   xmlns:sodipodi="http://sodipodi.sourceforge.net/DTD/sodipodi-0.dtd"
   xmlns="http://www.w3.org/2000/svg"
   xmlns:svg="http://www.w3.org/2000/svg"><sodipodi:namedview
     id="namedview7"
     pagecolor="#ffffff"
     bordercolor="#000000"
     borderopacity="0.25"
     inkscape:showpageshadow="2"
     inkscape:pageopacity="0.0"
     inkscape:pagecheckerboard="0"
     inkscape:deskcolor="#d1d1d1"
     inkscape:document-units="mm"
     showgrid="false"
     inkscape:zoom="3"
     inkscape:cx="41.833333"
     inkscape:cy="68.833333"
     inkscape:window-width="1280"
     inkscape:window-height="771"
     inkscape:window-x="0"
     inkscape:window-y="33"
     inkscape:window-maximized="0"
     inkscape:current-layer="layer1" /><defs
     id="defs2"><pattern
       patternUnits="userSpaceOnUse"
       width="8.256"
       height="15.856"
       patternTransform="translate(57.810664,32.72)"
       id="pattern10817"><text
         xml:space="preserve"
         style="font-style:normal;font-variant:normal;font-weight:bold;font-stretch:normal;font-size:16px;font-family:'Open Sans';-inkscape-font-specification:'Open Sans Bold';fill:#000000;fill-opacity:1;stroke:none;stroke-width:5.66928;stroke-linecap:round;stroke-linejoin:miter;stroke-dasharray:none;stroke-opacity:1"
         x="-0.14399999"
         y="13.28"
         id="text10815"><tspan
           sodipodi:role="line"
           id="tspan10813"
           style="font-style:normal;font-variant:normal;font-weight:bold;font-stretch:normal;font-family:'Fira Sans';-inkscape-font-specification:'Fira Sans Bold';fill:#000000;fill-opacity:1;stroke-width:5.66928"
           x="-0.14399999"
           y="13.28">$</tspan></text></pattern></defs><g
     inkscape:label="Layer 1"
     inkscape:groupmode="layer"
     id="layer1"><path
       id="rect466"
       style="fill:#ffffff;stroke:#136329;stroke-width:2.59515;stroke-linecap:round;stroke-linejoin:bevel;stroke-dasharray:none"
       d="m 5.2863174,1.2975735 c -2.2096748,0 -3.9887425,2.1359035 -3.9887425,4.788783 V 22.20691 c 0,2.652879 1.7790677,4.788783 3.9887425,4.788783 H 10.16064 c 0.383285,1.664727 0.884833,6.706734 1.643476,6.706734 0.758647,0 1.260678,-5.042032 1.643961,-6.706734 h 5.265605 c 2.209674,0 3.988743,-2.135904 3.988743,-4.788783 V 6.0863566 c 0,-2.6528796 -1.779069,-4.7887831 -3.988743,-4.7887831 z" /><g
       id="g1298"
       transform="matrix(2.1405676,0,0,2.1405676,-3.0629719,-1.606338)"><path
         style="fill:none;stroke:#000000;stroke-width:0.529167;stroke-linecap:round;stroke-linejoin:bevel;stroke-opacity:1"
         d="M 3.9500283,8.1324113 4.9455142,9.5757604 C 5.1481913,9.8152878 5.8094255,10.454995 5.3549478,9.1223037 4.9624142,7.9712549 3.8655357,4.9428161 3.8655357,4.9428161 c 0,0 -0.1901081,-0.9716645 0.6548176,-1.2462655 0.8449259,-0.274601 3.0628563,-0.7181869 3.0628563,-0.7181869 0,0 0.866049,-0.1689854 1.1828962,0.6336943 0.316847,0.8026797 1.2954872,3.4278061 1.2954872,3.4278061 0.101339,0.2763778 0.523801,1.7594731 -0.5746022,0.9154684 C 8.5132124,7.2070884 7.9634262,6.6537911 7.9634262,6.6537911"
         id="path1129"
         sodipodi:nodetypes="ccscscscsc" /><path
         style="fill:none;stroke:#000000;stroke-width:0.264583;stroke-linecap:round;stroke-linejoin:bevel;stroke-dasharray:none;stroke-opacity:1"
         d="m 5.2239319,3.5394759 1.136833,2.8646542 c 0,0 0.2085336,0.545385 -0.2139293,0.1440454 C 5.7243725,6.1468356 4.9639394,5.3652792 4.9639394,5.3652792 c 0,0 -0.1478621,-0.084492 -0.084493,-0.3168472 0.063369,-0.2323547 0.3536977,-1.5089561 0.3444855,-1.5089561 z"
         id="path1185"
         sodipodi:nodetypes="ccscsc" /><path
         style="fill:none;stroke:#000000;stroke-width:0.264583;stroke-linecap:round;stroke-linejoin:bevel;stroke-dasharray:none;stroke-opacity:1"
         d="M 6.8650225,3.2529645 8.069042,5.8933579 c 0,0 0.1056156,0.3590933 -0.1689851,0.1689852 C 7.6254559,5.8722347 6.4214364,5.0061857 6.4214364,5.0061857 c 0,0 -0.1901082,-0.1478621 -0.1056156,-0.4013399 0.084493,-0.2534777 0.5492017,-1.3518813 0.5492017,-1.3518813 z"
         id="path1187" /></g></g></svg>
