<?xml version="1.0" encoding="UTF-8" standalone="no"?>
<!-- Created with Inkscape (http://www.inkscape.org/) -->

<svg
   width="96"
   height="140"
   viewBox="0 0 24 35"
   version="1.1"
   id="svg5"
   xml:space="preserve"
   xmlns="http://www.w3.org/2000/svg"
   xmlns:svg="http://www.w3.org/2000/svg"><defs
     id="defs2" /><g
     id="layer1"
     transform="translate(-136)"><path
       id="rect466-5-9"
       style="fill:#d8e1e5;fill-opacity:1;stroke:#ed125b;stroke-width:2.59515;stroke-linecap:round;stroke-linejoin:bevel;stroke-dasharray:none;stroke-opacity:1"
       d="m 141.28632,1.2975728 c -2.20968,0 -3.98875,2.135904 -3.98875,4.788784 V 22.20691 c 0,2.652879 1.77907,4.788783 3.98875,4.788783 h 4.87432 c 0.38328,1.664727 0.88483,6.706734 1.64348,6.706734 0.75865,0 1.26067,-5.042032 1.64396,-6.706734 h 5.2656 c 2.20968,0 3.98874,-2.135904 3.98874,-4.788783 V 6.0863568 c 0,-2.65288 -1.77905,-4.788784 -3.98874,-4.788784 z" /><g
       id="g14114"
       transform="translate(0,0.5)"><path
         d="m 140.76551,13.055275 a 3.617042,3.617042 0 0 1 6.7503,-1.808521 h 5.90935 a 0.45213025,0.45213025 0 0 1 0.32011,0.132022 l 1.35639,1.356391 a 0.45213025,0.45213025 0 0 1 0,0.640216 l -1.35639,1.356391 a 0.45213025,0.45213025 0 0 1 -0.64022,0 l -0.58415,-0.585056 -0.58416,0.585056 a 0.45213025,0.45213025 0 0 1 -0.64021,0 l -0.58415,-0.585056 -0.58416,0.585056 a 0.45213025,0.45213025 0 0 1 -0.64021,0 l -0.58416,-0.585056 -0.58415,0.585056 a 0.45213025,0.45213025 0 0 1 -0.32011,0.132022 h -0.48378 a 3.617042,3.617042 0 0 1 -6.7503,-1.808521 m 3.61704,-2.712781 a 2.7127815,2.7127815 0 1 0 2.45236,3.874756 0.45213025,0.45213025 0 0 1 0.40782,-0.257714 h 0.56968 l 0.77134,-0.772239 a 0.45213025,0.45213025 0 0 1 0.64021,0 l 0.58415,0.585057 0.58416,-0.585057 a 0.45213025,0.45213025 0 0 1 0.64021,0 l 0.58416,0.585057 0.58415,-0.585057 a 0.45213025,0.45213025 0 0 1 0.64021,0 l 0.58416,0.585057 0.71708,-0.717079 -0.90427,-0.90426 h -5.99524 a 0.45213025,0.45213025 0 0 1 -0.40782,-0.257715 2.7127815,2.7127815 0 0 0 -2.45236,-1.550806"
         id="path8192-0"
         style="fill:#000000;stroke-width:0.904261" /><path
         d="m 144.38255,13.055275 a 0.90426049,0.90426049 0 1 1 -1.80852,0 0.90426049,0.90426049 0 0 1 1.80852,0"
         id="path8194-9"
         style="fill:#000000;stroke-width:0.904261" /></g><rect
       style="fill:#d8e1e5;fill-opacity:1;stroke:none;stroke-width:1.83662;stroke-linecap:round;stroke-linejoin:miter;stroke-dasharray:none;stroke-opacity:1"
       id="rect12115-5-1"
       width="3.7795277"
       height="7.3430815"
       x="152.63834"
       y="4.0974469" /><path
       d="m 156.0761,8.575987 q 0,0.468 -0.294,0.792 -0.294,0.318 -0.816,0.426 v 0.948 h -0.684 v -0.912 q -0.792,-0.066 -1.302,-0.564 l 0.486,-0.528 q 0.432,0.402 0.996,0.402 0.294,0 0.462,-0.132 0.168,-0.132 0.168,-0.36 0,-0.15 -0.06,-0.246 -0.06,-0.102 -0.216,-0.18 -0.156,-0.084 -0.45,-0.174 -0.66,-0.21 -0.942,-0.498 -0.276,-0.288 -0.276,-0.738 0,-0.45 0.312,-0.75 0.312,-0.306 0.822,-0.378 v -0.888 h 0.684 v 0.888 q 0.594,0.096 0.996,0.486 l -0.438,0.516 q -0.396,-0.336 -0.87,-0.336 -0.252,0 -0.396,0.102 -0.144,0.102 -0.144,0.288 0,0.132 0.06,0.216 0.066,0.084 0.228,0.162 0.162,0.072 0.486,0.174 0.606,0.192 0.894,0.48 0.294,0.288 0.294,0.804 z"
       style="font-weight:bold;font-size:6px;font-family:'Fira Sans';-inkscape-font-specification:'Fira Sans Bold';fill:#050500;stroke-width:1.41732;stroke-linecap:round;stroke-dasharray:none"
       id="path13658-2-2" /></g></svg>
