<?xml version="1.0" encoding="UTF-8" standalone="no"?>
<!-- Created with Inkscape (http://www.inkscape.org/) -->

<svg
   width="96"
   height="140"
   viewBox="0 0 24 35"
   version="1.1"
   id="svg5"
   inkscape:version="1.2.1 (9c6d41e, 2022-07-14)"
   sodipodi:docname="private.svg"
   xml:space="preserve"
   inkscape:export-filename="parking.png"
   inkscape:export-xdpi="300"
   inkscape:export-ydpi="300"
   xmlns:inkscape="http://www.inkscape.org/namespaces/inkscape"
   xmlns:sodipodi="http://sodipodi.sourceforge.net/DTD/sodipodi-0.dtd"
   xmlns="http://www.w3.org/2000/svg"
   xmlns:svg="http://www.w3.org/2000/svg"><sodipodi:namedview
     id="namedview7"
     pagecolor="#ffffff"
     bordercolor="#000000"
     borderopacity="0.25"
     inkscape:showpageshadow="2"
     inkscape:pageopacity="0.0"
     inkscape:pagecheckerboard="0"
     inkscape:deskcolor="#d1d1d1"
     inkscape:document-units="mm"
     showgrid="false"
     inkscape:zoom="2.9760049"
     inkscape:cx="59.475709"
     inkscape:cy="112.73503"
     inkscape:window-width="1280"
     inkscape:window-height="771"
     inkscape:window-x="0"
     inkscape:window-y="33"
     inkscape:window-maximized="0"
     inkscape:current-layer="layer1"><inkscape:page
       x="0"
       y="0"
       width="24"
       height="35"
       id="page818"
       inkscape:label="unselected" /><inkscape:page
       x="34"
       y="0"
       width="24"
       height="35"
       id="page820"
       inkscape:label="selected" /><inkscape:page
       x="68"
       y="0"
       width="24"
       height="35"
       id="page822"
       inkscape:label="sidebar" /><inkscape:page
       x="102"
       y="0"
       width="24"
       height="35"
       id="page1836"
       inkscape:label="paid_unselected" /><inkscape:page
       x="136"
       y="0"
       width="24"
       height="35"
       id="page1838"
       inkscape:label="paid_selected" /><inkscape:page
       x="170"
       y="0"
       width="24"
       height="35"
       id="page1840"
       inkscape:label="paid_sidebar" /><inkscape:page
       x="204"
       y="0"
       width="24"
       height="35"
       id="page2310"
       inkscape:label="covered_unselected" /><inkscape:page
       x="238"
       y="0"
       width="24"
       height="35"
       id="page2312"
       inkscape:label="covered_selected" /><inkscape:page
       x="272"
       y="0"
       width="24"
       height="35"
       id="page2314"
       inkscape:label="covered_sidebar" /><inkscape:page
       x="306"
       y="0"
       width="24"
       height="35"
       id="page2621"
       inkscape:label="paid_covered_unselected" /><inkscape:page
       x="340"
       y="0"
       width="24"
       height="35"
       id="page2623"
       inkscape:label="paid_covered_selected" /><inkscape:page
       x="374"
       y="0"
       width="24"
       height="35"
       id="page2625"
       inkscape:label="paid_covered_sidebar" /></sodipodi:namedview><defs
     id="defs2"><pattern
       patternUnits="userSpaceOnUse"
       width="8.256"
       height="15.856"
       patternTransform="translate(57.810664,32.72)"
       id="pattern10817"><text
         xml:space="preserve"
         style="font-style:normal;font-variant:normal;font-weight:bold;font-stretch:normal;font-size:16px;font-family:'Open Sans';-inkscape-font-specification:'Open Sans Bold';fill:#000000;fill-opacity:1;stroke:none;stroke-width:5.66928;stroke-linecap:round;stroke-linejoin:miter;stroke-dasharray:none;stroke-opacity:1"
         x="-0.14399999"
         y="13.28"
         id="text10815"><tspan
           sodipodi:role="line"
           id="tspan10813"
           style="font-style:normal;font-variant:normal;font-weight:bold;font-stretch:normal;font-family:'Fira Sans';-inkscape-font-specification:'Fira Sans Bold';fill:#000000;fill-opacity:1;stroke-width:5.66928"
           x="-0.14399999"
           y="13.28">$</tspan></text></pattern></defs><g
     inkscape:label="Layer 1"
     inkscape:groupmode="layer"
     id="layer1"><path
       id="rect466"
       style="fill:#d8e1e5;stroke:#136329;stroke-width:2.59515;stroke-linecap:round;stroke-linejoin:bevel;stroke-dasharray:none;fill-opacity:1"
       d="m 5.2863174,1.2975735 c -2.2096748,0 -3.9887425,2.1359035 -3.9887425,4.788783 V 22.20691 c 0,2.652879 1.7790677,4.788783 3.9887425,4.788783 H 10.16064 c 0.383285,1.664727 0.884833,6.706734 1.643476,6.706734 0.758647,0 1.260678,-5.042032 1.643961,-6.706734 h 5.265605 c 2.209674,0 3.988743,-2.135904 3.988743,-4.788783 V 6.0863566 c 0,-2.6528796 -1.779069,-4.7887831 -3.988743,-4.7887831 z" /><path
       id="rect466-5"
       style="fill:#d8e1e5;stroke:#ed125b;stroke-width:2.59515;stroke-linecap:round;stroke-linejoin:bevel;stroke-dasharray:none;stroke-opacity:1;fill-opacity:1"
       d="m 39.286317,1.297573 c -2.209674,0 -3.988742,2.135904 -3.988742,4.788784 V 22.20691 c 0,2.652879 1.779068,4.788783 3.988742,4.788783 h 4.874323 c 0.383285,1.664727 0.884833,6.706734 1.643476,6.706734 0.758647,0 1.260678,-5.042032 1.643961,-6.706734 h 5.265605 c 2.209674,0 3.988743,-2.135904 3.988743,-4.788783 V 6.086357 c 0,-2.65288 -1.779069,-4.788784 -3.988743,-4.788784 z" /><g
       id="g14126"
       transform="translate(0,0.5)"><path
         d="m 38.765512,13.055275 a 3.617042,3.617042 0 0 1 6.750305,-1.808521 h 5.909342 a 0.45213025,0.45213025 0 0 1 0.320108,0.132022 l 1.356391,1.356391 a 0.45213025,0.45213025 0 0 1 0,0.640216 l -1.356391,1.356391 a 0.45213025,0.45213025 0 0 1 -0.640216,0 l -0.584153,-0.585056 -0.584152,0.585056 a 0.45213025,0.45213025 0 0 1 -0.640216,0 l -0.584153,-0.585056 -0.584152,0.585056 a 0.45213025,0.45213025 0 0 1 -0.640216,0 l -0.584153,-0.585056 -0.584152,0.585056 a 0.45213025,0.45213025 0 0 1 -0.320108,0.132022 h -0.483779 a 3.617042,3.617042 0 0 1 -6.750305,-1.808521 m 3.617042,-2.712781 a 2.7127815,2.7127815 0 1 0 2.452354,3.874756 0.45213025,0.45213025 0 0 1 0.407822,-0.257714 h 0.569684 l 0.771334,-0.772239 a 0.45213025,0.45213025 0 0 1 0.640217,0 l 0.584152,0.585057 0.584152,-0.585057 a 0.45213025,0.45213025 0 0 1 0.640217,0 l 0.584152,0.585057 0.584152,-0.585057 a 0.45213025,0.45213025 0 0 1 0.640217,0 l 0.584152,0.585057 0.717078,-0.717079 -0.90426,-0.90426 H 45.24273 A 0.45213025,0.45213025 0 0 1 44.834908,11.8933 2.7127815,2.7127815 0 0 0 42.382554,10.342494"
         id="path8192-6"
         style="fill:#000000;stroke-width:0.904261" /><path
         d="m 42.382554,13.055275 a 0.9042605,0.9042605 0 1 1 -1.808521,0 0.9042605,0.9042605 0 0 1 1.808521,0"
         id="path8194-2"
         style="fill:#000000;stroke-width:0.904261" /></g><path
       id="rect466-0"
       style="fill:#d8e1e5;stroke:#ffa200;stroke-width:2.59515;stroke-linecap:round;stroke-linejoin:bevel;stroke-dasharray:none;stroke-opacity:1;fill-opacity:1"
       d="m 73.286317,1.297573 c -2.209674,0 -3.988742,2.135904 -3.988742,4.788783 V 22.20691 c 0,2.652879 1.779068,4.788783 3.988742,4.788783 h 4.874323 c 0.383285,1.664727 0.884833,6.706734 1.643476,6.706734 0.758647,0 1.260678,-5.042032 1.643961,-6.706734 h 5.265605 c 2.209674,0 3.988743,-2.135904 3.988743,-4.788783 V 6.086357 c 0,-2.65288 -1.779069,-4.788783 -3.988743,-4.788783 z" /><g
       id="g14122"
       transform="translate(0,0.5)"><path
         d="m 72.765512,13.055275 a 3.617042,3.617042 0 0 1 6.750305,-1.808521 h 5.909342 a 0.45213025,0.45213025 0 0 1 0.320108,0.132022 l 1.356391,1.356391 a 0.45213025,0.45213025 0 0 1 0,0.640216 l -1.356391,1.356391 a 0.45213025,0.45213025 0 0 1 -0.640216,0 l -0.584153,-0.585056 -0.584152,0.585056 a 0.45213025,0.45213025 0 0 1 -0.640216,0 l -0.584153,-0.585056 -0.584152,0.585056 a 0.45213025,0.45213025 0 0 1 -0.640216,0 l -0.584153,-0.585056 -0.584152,0.585056 a 0.45213025,0.45213025 0 0 1 -0.320108,0.132022 h -0.483779 a 3.617042,3.617042 0 0 1 -6.750305,-1.808521 m 3.617042,-2.712781 a 2.7127815,2.7127815 0 1 0 2.452354,3.874756 0.45213025,0.45213025 0 0 1 0.407822,-0.257714 h 0.569684 l 0.771334,-0.772239 a 0.45213025,0.45213025 0 0 1 0.640217,0 l 0.584152,0.585057 0.584152,-0.585057 a 0.45213025,0.45213025 0 0 1 0.640217,0 l 0.584152,0.585057 0.584152,-0.585057 a 0.45213025,0.45213025 0 0 1 0.640217,0 l 0.584152,0.585057 0.717078,-0.717079 -0.90426,-0.90426 H 79.24273 A 0.45213025,0.45213025 0 0 1 78.834908,11.8933 2.7127815,2.7127815 0 0 0 76.382554,10.342494"
         id="path8192-3"
         style="fill:#000000;stroke-width:0.904261" /><path
         d="m 76.382554,13.055275 a 0.9042605,0.9042605 0 1 1 -1.808521,0 0.9042605,0.9042605 0 0 1 1.808521,0"
         id="path8194-1"
         style="fill:#000000;stroke-width:0.904261" /></g><path
       id="rect466-51"
       style="fill:#d8e1e5;stroke:#136329;stroke-width:2.59515;stroke-linecap:round;stroke-linejoin:bevel;stroke-dasharray:none;fill-opacity:1"
       d="m 107.28633,1.2975728 c -2.20968,0 -3.98875,2.135904 -3.98875,4.788784 V 22.20691 c 0,2.652879 1.77907,4.788783 3.98875,4.788783 h 4.87432 c 0.38328,1.664727 0.88482,6.706734 1.64348,6.706734 0.75864,0 1.26067,-5.042032 1.64396,-6.706734 h 5.2656 c 2.20968,0 3.98874,-2.135904 3.98874,-4.788783 V 6.0863568 c 0,-2.65288 -1.77906,-4.788784 -3.98874,-4.788784 z" /><g
       id="g14118"
       transform="translate(0,0.5)"><path
         d="m 106.76551,13.055275 a 3.617042,3.617042 0 0 1 6.7503,-1.808521 h 5.90935 a 0.45213025,0.45213025 0 0 1 0.32011,0.132022 l 1.35639,1.356391 a 0.45213025,0.45213025 0 0 1 0,0.640216 l -1.35639,1.356391 a 0.45213025,0.45213025 0 0 1 -0.64022,0 l -0.58415,-0.585056 -0.58416,0.585056 a 0.45213025,0.45213025 0 0 1 -0.64021,0 l -0.58415,-0.585056 -0.58416,0.585056 a 0.45213025,0.45213025 0 0 1 -0.64021,0 l -0.58416,-0.585056 -0.58415,0.585056 a 0.45213025,0.45213025 0 0 1 -0.32011,0.132022 h -0.48378 a 3.617042,3.617042 0 0 1 -6.7503,-1.808521 m 3.61704,-2.712781 a 2.7127815,2.7127815 0 1 0 2.45236,3.874756 0.45213025,0.45213025 0 0 1 0.40782,-0.257714 h 0.56968 l 0.77134,-0.772239 a 0.45213025,0.45213025 0 0 1 0.64021,0 l 0.58415,0.585057 0.58416,-0.585057 a 0.45213025,0.45213025 0 0 1 0.64021,0 l 0.58416,0.585057 0.58415,-0.585057 a 0.45213025,0.45213025 0 0 1 0.64021,0 l 0.58416,0.585057 0.71708,-0.717079 -0.90427,-0.90426 h -5.99524 a 0.45213025,0.45213025 0 0 1 -0.40782,-0.257715 2.7127815,2.7127815 0 0 0 -2.45236,-1.550806"
         id="path8192-5"
         style="fill:#000000;stroke-width:0.904261" /><path
         d="m 110.38255,13.055275 a 0.90426049,0.90426049 0 1 1 -1.80852,0 0.90426049,0.90426049 0 0 1 1.80852,0"
         id="path8194-5"
         style="fill:#000000;stroke-width:0.904261" /></g><path
       id="rect466-0-1"
       style="fill:#d8e1e5;stroke:#ffa200;stroke-width:2.59515;stroke-linecap:round;stroke-linejoin:bevel;stroke-dasharray:none;stroke-opacity:1;fill-opacity:1"
       d="m 175.28632,1.2975728 c -2.20968,0 -3.98875,2.135904 -3.98875,4.788783 V 22.20691 c 0,2.652879 1.77907,4.788783 3.98875,4.788783 h 4.87432 c 0.38328,1.664727 0.88483,6.706734 1.64348,6.706734 0.75865,0 1.26067,-5.042032 1.64396,-6.706734 h 5.2656 c 2.20968,0 3.98874,-2.135904 3.98874,-4.788783 V 6.0863568 c 0,-2.65288 -1.77905,-4.788783 -3.98874,-4.788783 z" /><g
       id="g14110"
       transform="translate(0,0.5)"><path
         d="m 174.76551,13.055275 a 3.617042,3.617042 0 0 1 6.7503,-1.808521 h 5.90935 a 0.45213025,0.45213025 0 0 1 0.32011,0.132022 l 1.35639,1.356391 a 0.45213025,0.45213025 0 0 1 0,0.640216 l -1.35639,1.356391 a 0.45213025,0.45213025 0 0 1 -0.64022,0 l -0.58415,-0.585056 -0.58416,0.585056 a 0.45213025,0.45213025 0 0 1 -0.64021,0 l -0.58415,-0.585056 -0.58416,0.585056 a 0.45213025,0.45213025 0 0 1 -0.64021,0 l -0.58416,-0.585056 -0.58415,0.585056 a 0.45213025,0.45213025 0 0 1 -0.32011,0.132022 h -0.48378 a 3.617042,3.617042 0 0 1 -6.7503,-1.808521 m 3.61704,-2.712781 a 2.7127815,2.7127815 0 1 0 2.45236,3.874756 0.45213025,0.45213025 0 0 1 0.40782,-0.257714 h 0.56968 l 0.77134,-0.772239 a 0.45213025,0.45213025 0 0 1 0.64021,0 l 0.58415,0.585057 0.58416,-0.585057 a 0.45213025,0.45213025 0 0 1 0.64021,0 l 0.58416,0.585057 0.58415,-0.585057 a 0.45213025,0.45213025 0 0 1 0.64021,0 l 0.58416,0.585057 0.71708,-0.717079 -0.90427,-0.90426 h -5.99524 a 0.45213025,0.45213025 0 0 1 -0.40782,-0.257715 2.7127815,2.7127815 0 0 0 -2.45236,-1.550806"
         id="path8192-1"
         style="fill:#000000;stroke-width:0.904261" /><path
         d="m 178.38255,13.055275 a 0.90426049,0.90426049 0 1 1 -1.80852,0 0.90426049,0.90426049 0 0 1 1.80852,0"
         id="path8194-21"
         style="fill:#000000;stroke-width:0.904261" /></g><rect
       style="fill:#d8e1e5;fill-opacity:1;stroke:none;stroke-width:1.83662;stroke-linecap:round;stroke-linejoin:miter;stroke-dasharray:none;stroke-opacity:1"
       id="rect12115-5-4"
       width="3.7795277"
       height="7.3430815"
       x="186.63834"
       y="4.0974469" /><path
       d="m 190.0761,8.575987 q 0,0.468 -0.294,0.792 -0.294,0.318 -0.816,0.426 v 0.948 h -0.684 v -0.912 q -0.792,-0.066 -1.302,-0.564 l 0.486,-0.528 q 0.432,0.402 0.996,0.402 0.294,0 0.462,-0.132 0.168,-0.132 0.168,-0.36 0,-0.15 -0.06,-0.246 -0.06,-0.102 -0.216,-0.18 -0.156,-0.084 -0.45,-0.174 -0.66,-0.21 -0.942,-0.498 -0.276,-0.288 -0.276,-0.738 0,-0.45 0.312,-0.75 0.312,-0.306 0.822,-0.378 v -0.888 h 0.684 v 0.888 q 0.594,0.096 0.996,0.486 l -0.438,0.516 q -0.396,-0.336 -0.87,-0.336 -0.252,0 -0.396,0.102 -0.144,0.102 -0.144,0.288 0,0.132 0.06,0.216 0.066,0.084 0.228,0.162 0.162,0.072 0.486,0.174 0.606,0.192 0.894,0.48 0.294,0.288 0.294,0.804 z"
       style="font-weight:bold;font-size:6px;font-family:'Fira Sans';-inkscape-font-specification:'Fira Sans Bold';fill:#050500;stroke-width:1.41732;stroke-linecap:round"
       id="path13658-2-23" /><path
       id="rect466-5-9"
       style="fill:#d8e1e5;stroke:#ed125b;stroke-width:2.59515;stroke-linecap:round;stroke-linejoin:bevel;stroke-dasharray:none;stroke-opacity:1;fill-opacity:1"
       d="m 141.28632,1.2975728 c -2.20968,0 -3.98875,2.135904 -3.98875,4.788784 V 22.20691 c 0,2.652879 1.77907,4.788783 3.98875,4.788783 h 4.87432 c 0.38328,1.664727 0.88483,6.706734 1.64348,6.706734 0.75865,0 1.26067,-5.042032 1.64396,-6.706734 h 5.2656 c 2.20968,0 3.98874,-2.135904 3.98874,-4.788783 V 6.0863568 c 0,-2.65288 -1.77905,-4.788784 -3.98874,-4.788784 z" /><g
       id="g14114"
       transform="translate(0,0.5)"><path
         d="m 140.76551,13.055275 a 3.617042,3.617042 0 0 1 6.7503,-1.808521 h 5.90935 a 0.45213025,0.45213025 0 0 1 0.32011,0.132022 l 1.35639,1.356391 a 0.45213025,0.45213025 0 0 1 0,0.640216 l -1.35639,1.356391 a 0.45213025,0.45213025 0 0 1 -0.64022,0 l -0.58415,-0.585056 -0.58416,0.585056 a 0.45213025,0.45213025 0 0 1 -0.64021,0 l -0.58415,-0.585056 -0.58416,0.585056 a 0.45213025,0.45213025 0 0 1 -0.64021,0 l -0.58416,-0.585056 -0.58415,0.585056 a 0.45213025,0.45213025 0 0 1 -0.32011,0.132022 h -0.48378 a 3.617042,3.617042 0 0 1 -6.7503,-1.808521 m 3.61704,-2.712781 a 2.7127815,2.7127815 0 1 0 2.45236,3.874756 0.45213025,0.45213025 0 0 1 0.40782,-0.257714 h 0.56968 l 0.77134,-0.772239 a 0.45213025,0.45213025 0 0 1 0.64021,0 l 0.58415,0.585057 0.58416,-0.585057 a 0.45213025,0.45213025 0 0 1 0.64021,0 l 0.58416,0.585057 0.58415,-0.585057 a 0.45213025,0.45213025 0 0 1 0.64021,0 l 0.58416,0.585057 0.71708,-0.717079 -0.90427,-0.90426 h -5.99524 a 0.45213025,0.45213025 0 0 1 -0.40782,-0.257715 2.7127815,2.7127815 0 0 0 -2.45236,-1.550806"
         id="path8192-0"
         style="fill:#000000;stroke-width:0.904261" /><path
         d="m 144.38255,13.055275 a 0.90426049,0.90426049 0 1 1 -1.80852,0 0.90426049,0.90426049 0 0 1 1.80852,0"
         id="path8194-9"
         style="fill:#000000;stroke-width:0.904261" /></g><rect
       style="fill:#d8e1e5;fill-opacity:1;stroke:none;stroke-width:1.83662;stroke-linecap:round;stroke-linejoin:miter;stroke-dasharray:none;stroke-opacity:1"
       id="rect12115-5-1"
       width="3.7795277"
       height="7.3430815"
       x="152.63834"
       y="4.0974469" /><path
       d="m 156.0761,8.575987 q 0,0.468 -0.294,0.792 -0.294,0.318 -0.816,0.426 v 0.948 h -0.684 v -0.912 q -0.792,-0.066 -1.302,-0.564 l 0.486,-0.528 q 0.432,0.402 0.996,0.402 0.294,0 0.462,-0.132 0.168,-0.132 0.168,-0.36 0,-0.15 -0.06,-0.246 -0.06,-0.102 -0.216,-0.18 -0.156,-0.084 -0.45,-0.174 -0.66,-0.21 -0.942,-0.498 -0.276,-0.288 -0.276,-0.738 0,-0.45 0.312,-0.75 0.312,-0.306 0.822,-0.378 v -0.888 h 0.684 v 0.888 q 0.594,0.096 0.996,0.486 l -0.438,0.516 q -0.396,-0.336 -0.87,-0.336 -0.252,0 -0.396,0.102 -0.144,0.102 -0.144,0.288 0,0.132 0.06,0.216 0.066,0.084 0.228,0.162 0.162,0.072 0.486,0.174 0.606,0.192 0.894,0.48 0.294,0.288 0.294,0.804 z"
       style="font-weight:bold;font-size:6px;font-family:'Fira Sans';-inkscape-font-specification:'Fira Sans Bold';fill:#050500;stroke-width:1.41732284;stroke-linecap:round;stroke-dasharray:none"
       id="path13658-2-2" /><rect
       style="fill:#d8e1e5;fill-opacity:1;stroke:none;stroke-width:1.83662;stroke-linecap:round;stroke-linejoin:miter;stroke-dasharray:none;stroke-opacity:1"
       id="rect12115-5"
       width="3.7795277"
       height="7.3430815"
       x="118.63833"
       y="4.0974469" /><path
       d="m 122.07609,8.575987 q 0,0.468 -0.294,0.792 -0.294,0.318 -0.816,0.426 v 0.948 h -0.684 v -0.912 q -0.792,-0.066 -1.302,-0.564 l 0.486,-0.528 q 0.432,0.402 0.996,0.402 0.294,0 0.462,-0.132 0.168,-0.132 0.168,-0.36 0,-0.15 -0.06,-0.246 -0.06,-0.102 -0.216,-0.18 -0.156,-0.084 -0.45,-0.174 -0.66,-0.21 -0.942,-0.498 -0.276,-0.288 -0.276,-0.738 0,-0.45 0.312,-0.75 0.312,-0.306 0.822,-0.378 v -0.888 h 0.684 v 0.888 q 0.594,0.096 0.996,0.486 l -0.438,0.516 q -0.396,-0.336 -0.87,-0.336 -0.252,0 -0.396,0.102 -0.144,0.102 -0.144,0.288 0,0.132 0.06,0.216 0.066,0.084 0.228,0.162 0.162,0.072 0.486,0.174 0.606,0.192 0.894,0.48 0.294,0.288 0.294,0.804 z"
       style="font-weight:bold;font-size:6px;font-family:'Fira Sans';-inkscape-font-specification:'Fira Sans Bold';fill:#050500;stroke-width:1.41732;stroke-linecap:round"
       id="path13658-2" /><path
       id="rect466-0-1-8"
       style="fill:#d8e1e5;stroke:#ffa200;stroke-width:2.59515;stroke-linecap:round;stroke-linejoin:bevel;stroke-dasharray:none;stroke-opacity:1;fill-opacity:1"
       d="m 277.28632,1.2975728 c -2.20968,0 -3.98875,2.135904 -3.98875,4.7887827 V 22.20691 c 0,2.652878 1.77907,4.788782 3.98875,4.788782 h 4.87432 c 0.38328,1.664728 0.88483,6.706735 1.64348,6.706735 0.75865,0 1.26067,-5.042032 1.64396,-6.706735 h 5.2656 c 2.20968,0 3.98874,-2.135904 3.98874,-4.788782 V 6.0863565 c 0,-2.6528797 -1.77904,-4.7887827 -3.98874,-4.7887827 z" /><g
       id="g14098"
       transform="translate(0,0.5)"><path
         d="m 276.76551,13.055275 a 3.617042,3.617042 0 0 1 6.7503,-1.808521 h 5.90935 a 0.45213025,0.45213025 0 0 1 0.32011,0.132022 l 1.35639,1.356391 a 0.45213025,0.45213025 0 0 1 0,0.640216 l -1.35639,1.356391 a 0.45213025,0.45213025 0 0 1 -0.64022,0 l -0.58415,-0.585056 -0.58416,0.585056 a 0.45213025,0.45213025 0 0 1 -0.64021,0 l -0.58415,-0.585056 -0.58416,0.585056 a 0.45213025,0.45213025 0 0 1 -0.64021,0 l -0.58416,-0.585056 -0.58415,0.585056 a 0.45213025,0.45213025 0 0 1 -0.32011,0.132022 h -0.48378 a 3.617042,3.617042 0 0 1 -6.7503,-1.808521 m 3.61704,-2.712781 a 2.7127815,2.7127815 0 1 0 2.45236,3.874756 0.45213025,0.45213025 0 0 1 0.40782,-0.257714 h 0.56968 l 0.77134,-0.772239 a 0.45213025,0.45213025 0 0 1 0.64021,0 l 0.58415,0.585057 0.58416,-0.585057 a 0.45213025,0.45213025 0 0 1 0.64021,0 l 0.58416,0.585057 0.58415,-0.585057 a 0.45213025,0.45213025 0 0 1 0.64021,0 l 0.58416,0.585057 0.71708,-0.717079 -0.90427,-0.90426 h -5.99524 a 0.45213025,0.45213025 0 0 1 -0.40782,-0.257715 2.7127815,2.7127815 0 0 0 -2.45236,-1.550806"
         id="path8192-2"
         style="fill:#000000;stroke-width:0.904261" /><path
         d="m 280.38255,13.055275 a 0.90426049,0.90426049 0 1 1 -1.80852,0 0.90426049,0.90426049 0 0 1 1.80852,0"
         id="path8194-4"
         style="fill:#000000;stroke-width:0.904261" /></g><path
       id="path8628-39-3"
       style="fill:none;stroke:#000000;stroke-width:1.41732;stroke-linecap:round;stroke-dasharray:none"
       inkscape:transform-center-x="0.0044216181"
       inkscape:transform-center-y="-0.38017535"
       d="m 276.2908,7.2425709 7.57406,-2.7730835 7.59384,2.7594206"
       sodipodi:nodetypes="ccc" /><path
       id="rect466-5-9-9"
       style="fill:#d8e1e5;stroke:#ed125b;stroke-width:2.59515;stroke-linecap:round;stroke-linejoin:bevel;stroke-dasharray:none;stroke-opacity:1;fill-opacity:1"
       d="m 243.28632,1.2975728 c -2.20967,0 -3.98875,2.135904 -3.98875,4.7887837 V 22.20691 c 0,2.652878 1.77907,4.788782 3.98875,4.788782 h 4.87433 c 0.38328,1.664728 0.88482,6.706735 1.64348,6.706735 0.75865,0 1.26067,-5.042032 1.64396,-6.706735 h 5.26559 c 2.20968,0 3.98874,-2.135904 3.98874,-4.788782 V 6.0863565 c 0,-2.6528797 -1.77904,-4.7887837 -3.98874,-4.7887837 z" /><g
       id="g14102"
       transform="translate(0,0.5)"><path
         d="m 242.76551,13.055275 a 3.617042,3.617042 0 0 1 6.7503,-1.808521 h 5.90935 a 0.45213025,0.45213025 0 0 1 0.32011,0.132022 l 1.35639,1.356391 a 0.45213025,0.45213025 0 0 1 0,0.640216 l -1.35639,1.356391 a 0.45213025,0.45213025 0 0 1 -0.64022,0 l -0.58415,-0.585056 -0.58416,0.585056 a 0.45213025,0.45213025 0 0 1 -0.64021,0 l -0.58415,-0.585056 -0.58416,0.585056 a 0.45213025,0.45213025 0 0 1 -0.64021,0 l -0.58416,-0.585056 -0.58415,0.585056 a 0.45213025,0.45213025 0 0 1 -0.32011,0.132022 h -0.48378 a 3.617042,3.617042 0 0 1 -6.7503,-1.808521 m 3.61704,-2.712781 a 2.7127815,2.7127815 0 1 0 2.45236,3.874756 0.45213025,0.45213025 0 0 1 0.40782,-0.257714 h 0.56968 l 0.77134,-0.772239 a 0.45213025,0.45213025 0 0 1 0.64021,0 l 0.58415,0.585057 0.58416,-0.585057 a 0.45213025,0.45213025 0 0 1 0.64021,0 l 0.58416,0.585057 0.58415,-0.585057 a 0.45213025,0.45213025 0 0 1 0.64021,0 l 0.58416,0.585057 0.71708,-0.717079 -0.90427,-0.90426 h -5.99524 a 0.45213025,0.45213025 0 0 1 -0.40782,-0.257715 2.7127815,2.7127815 0 0 0 -2.45236,-1.550806"
         id="path8192-11"
         style="fill:#000000;stroke-width:0.904261" /><path
         d="m 246.38255,13.055275 a 0.90426049,0.90426049 0 1 1 -1.80852,0 0.90426049,0.90426049 0 0 1 1.80852,0"
         id="path8194-26"
         style="fill:#000000;stroke-width:0.904261" /></g><path
       id="path8628-3-9"
       style="fill:none;stroke:#000000;stroke-width:1.41732;stroke-linecap:round;stroke-dasharray:none"
       inkscape:transform-center-x="0.0044216181"
       inkscape:transform-center-y="-0.38017535"
       d="m 242.2908,7.2425709 7.57406,-2.7730835 7.59384,2.7594206"
       sodipodi:nodetypes="ccc" /><path
       id="rect466-51-8"
       style="fill:#d8e1e5;stroke:#136329;stroke-width:2.59515;stroke-linecap:round;stroke-linejoin:bevel;stroke-dasharray:none;fill-opacity:1"
       d="m 209.28632,1.2975728 c -2.20967,0 -3.98875,2.135904 -3.98875,4.7887837 V 22.20691 c 0,2.652878 1.77907,4.788782 3.98875,4.788782 h 4.87433 c 0.38328,1.664728 0.88481,6.706735 1.64348,6.706735 0.75864,0 1.26067,-5.042032 1.64396,-6.706735 h 5.2656 c 2.20968,0 3.98874,-2.135904 3.98874,-4.788782 V 6.0863565 c 0,-2.6528797 -1.77906,-4.7887837 -3.98874,-4.7887837 z" /><g
       id="g14106"
       transform="translate(0,0.5)"><path
         d="m 208.76551,13.055275 a 3.617042,3.617042 0 0 1 6.7503,-1.808521 h 5.90935 a 0.45213025,0.45213025 0 0 1 0.32011,0.132022 l 1.35639,1.356391 a 0.45213025,0.45213025 0 0 1 0,0.640216 l -1.35639,1.356391 a 0.45213025,0.45213025 0 0 1 -0.64022,0 l -0.58415,-0.585056 -0.58416,0.585056 a 0.45213025,0.45213025 0 0 1 -0.64021,0 l -0.58415,-0.585056 -0.58416,0.585056 a 0.45213025,0.45213025 0 0 1 -0.64021,0 l -0.58416,-0.585056 -0.58415,0.585056 a 0.45213025,0.45213025 0 0 1 -0.32011,0.132022 h -0.48378 a 3.617042,3.617042 0 0 1 -6.7503,-1.808521 m 3.61704,-2.712781 a 2.7127815,2.7127815 0 1 0 2.45236,3.874756 0.45213025,0.45213025 0 0 1 0.40782,-0.257714 h 0.56968 l 0.77134,-0.772239 a 0.45213025,0.45213025 0 0 1 0.64021,0 l 0.58415,0.585057 0.58416,-0.585057 a 0.45213025,0.45213025 0 0 1 0.64021,0 l 0.58416,0.585057 0.58415,-0.585057 a 0.45213025,0.45213025 0 0 1 0.64021,0 l 0.58416,0.585057 0.71708,-0.717079 -0.90427,-0.90426 h -5.99524 a 0.45213025,0.45213025 0 0 1 -0.40782,-0.257715 2.7127815,2.7127815 0 0 0 -2.45236,-1.550806"
         id="path8192-17"
         style="fill:#000000;stroke-width:0.904261" /><path
         d="m 212.38255,13.055275 a 0.90426049,0.90426049 0 1 1 -1.80852,0 0.90426049,0.90426049 0 0 1 1.80852,0"
         id="path8194-3"
         style="fill:#000000;stroke-width:0.904261" /></g><path
       id="path8628-7"
       style="fill:none;stroke:#000000;stroke-width:1.41732;stroke-linecap:round;stroke-dasharray:none"
       inkscape:transform-center-x="0.0044216181"
       inkscape:transform-center-y="-0.38017535"
       d="m 208.29079,7.2425709 7.57406,-2.7730835 7.59384,2.7594206"
       sodipodi:nodetypes="ccc" /><path
       id="rect466-0-1-8-0"
       style="fill:#d8e1e5;stroke:#ffa200;stroke-width:2.59515;stroke-linecap:round;stroke-linejoin:bevel;stroke-dasharray:none;stroke-opacity:1;fill-opacity:1"
       d="m 379.28632,1.2975728 c -2.20968,0 -3.98875,2.135904 -3.98875,4.7887827 V 22.20691 c 0,2.652878 1.77907,4.788782 3.98875,4.788782 h 4.87432 c 0.38328,1.664728 0.88483,6.706735 1.64348,6.706735 0.75865,0 1.26067,-5.042032 1.64396,-6.706735 h 5.2656 c 2.20968,0 3.98874,-2.135904 3.98874,-4.788782 V 6.0863565 c 0,-2.6528797 -1.77905,-4.7887827 -3.98874,-4.7887827 z" /><g
       id="g14086"
       transform="translate(0,0.5)"><path
         d="m 378.76551,13.055275 a 3.617042,3.617042 0 0 1 6.7503,-1.808521 h 5.90935 a 0.45213025,0.45213025 0 0 1 0.32011,0.132022 l 1.35639,1.356391 a 0.45213025,0.45213025 0 0 1 0,0.640216 l -1.35639,1.356391 a 0.45213025,0.45213025 0 0 1 -0.64022,0 l -0.58415,-0.585056 -0.58416,0.585056 a 0.45213025,0.45213025 0 0 1 -0.64021,0 l -0.58415,-0.585056 -0.58416,0.585056 a 0.45213025,0.45213025 0 0 1 -0.64021,0 l -0.58416,-0.585056 -0.58415,0.585056 a 0.45213025,0.45213025 0 0 1 -0.32011,0.132022 h -0.48378 a 3.617042,3.617042 0 0 1 -6.7503,-1.808521 m 3.61704,-2.712781 a 2.7127815,2.7127815 0 1 0 2.45236,3.874756 0.45213025,0.45213025 0 0 1 0.40782,-0.257714 h 0.56968 l 0.77134,-0.772239 a 0.45213025,0.45213025 0 0 1 0.64021,0 l 0.58415,0.585057 0.58416,-0.585057 a 0.45213025,0.45213025 0 0 1 0.64021,0 l 0.58416,0.585057 0.58415,-0.585057 a 0.45213025,0.45213025 0 0 1 0.64021,0 l 0.58416,0.585057 0.71708,-0.717079 -0.90427,-0.90426 h -5.99524 a 0.45213025,0.45213025 0 0 1 -0.40782,-0.257715 2.7127815,2.7127815 0 0 0 -2.45236,-1.550806"
         id="path8192-2-5"
         style="fill:#000000;stroke-width:0.904261" /><path
         d="m 382.38255,13.055275 a 0.90426049,0.90426049 0 1 1 -1.80852,0 0.90426049,0.90426049 0 0 1 1.80852,0"
         id="path8194-4-7"
         style="fill:#000000;stroke-width:0.904261" /></g><path
       id="path8628-39-3-9"
       style="fill:none;stroke:#000000;stroke-width:1.41732;stroke-linecap:round;stroke-dasharray:none"
       inkscape:transform-center-x="0.0044216181"
       inkscape:transform-center-y="-0.38017535"
       d="m 378.2908,7.2425709 7.57406,-2.7730835 7.59384,2.7594206"
       sodipodi:nodetypes="ccc" /><rect
       style="fill:#d8e1e5;fill-opacity:1;stroke:none;stroke-width:1.83662;stroke-linecap:round;stroke-linejoin:miter;stroke-dasharray:none;stroke-opacity:1"
       id="rect12115-5-4-4-9"
       width="3.7795277"
       height="7.3430815"
       x="390.63834"
       y="4.0974469" /><path
       d="m 394.07609,8.575987 q 0,0.468 -0.294,0.792 -0.294,0.318 -0.816,0.426 v 0.948 h -0.684 v -0.912 q -0.792,-0.066 -1.302,-0.564 l 0.486,-0.528 q 0.432,0.402 0.996,0.402 0.294,0 0.462,-0.132 0.168,-0.132 0.168,-0.36 0,-0.15 -0.06,-0.246 -0.06,-0.102 -0.216,-0.18 -0.156,-0.084 -0.45,-0.174 -0.66,-0.21 -0.942,-0.498 -0.276,-0.288 -0.276,-0.738 0,-0.45 0.312,-0.75 0.312,-0.306 0.822,-0.378 v -0.888 h 0.684 v 0.888 q 0.594,0.096 0.996,0.486 l -0.438,0.516 q -0.396,-0.336 -0.87,-0.336 -0.252,0 -0.396,0.102 -0.144,0.102 -0.144,0.288 0,0.132 0.06,0.216 0.066,0.084 0.228,0.162 0.162,0.072 0.486,0.174 0.606,0.192 0.894,0.48 0.294,0.288 0.294,0.804 z"
       style="font-weight:bold;font-size:6px;font-family:'Fira Sans';-inkscape-font-specification:'Fira Sans Bold';fill:#050500;stroke-width:1.41732;stroke-linecap:round"
       id="path13658-2-23-3-2" /><path
       id="rect466-5-9-9-2"
       style="fill:#d8e1e5;stroke:#ed125b;stroke-width:2.59515;stroke-linecap:round;stroke-linejoin:bevel;stroke-dasharray:none;stroke-opacity:1;fill-opacity:1"
       d="m 345.28632,1.2975728 c -2.20968,0 -3.98875,2.135904 -3.98875,4.7887837 V 22.20691 c 0,2.652878 1.77907,4.788782 3.98875,4.788782 h 4.87432 c 0.38328,1.664728 0.88483,6.706735 1.64348,6.706735 0.75865,0 1.26067,-5.042032 1.64396,-6.706735 h 5.2656 c 2.20968,0 3.98874,-2.135904 3.98874,-4.788782 V 6.0863565 c 0,-2.6528797 -1.77905,-4.7887837 -3.98874,-4.7887837 z" /><g
       id="g14090"
       transform="translate(0,0.5)"><path
         d="m 344.76551,13.055275 a 3.617042,3.617042 0 0 1 6.7503,-1.808521 h 5.90935 a 0.45213025,0.45213025 0 0 1 0.32011,0.132022 l 1.35639,1.356391 a 0.45213025,0.45213025 0 0 1 0,0.640216 l -1.35639,1.356391 a 0.45213025,0.45213025 0 0 1 -0.64022,0 l -0.58415,-0.585056 -0.58416,0.585056 a 0.45213025,0.45213025 0 0 1 -0.64021,0 l -0.58415,-0.585056 -0.58416,0.585056 a 0.45213025,0.45213025 0 0 1 -0.64021,0 l -0.58416,-0.585056 -0.58415,0.585056 a 0.45213025,0.45213025 0 0 1 -0.32011,0.132022 h -0.48378 a 3.617042,3.617042 0 0 1 -6.7503,-1.808521 m 3.61704,-2.712781 a 2.7127815,2.7127815 0 1 0 2.45236,3.874756 0.45213025,0.45213025 0 0 1 0.40782,-0.257714 h 0.56968 l 0.77134,-0.772239 a 0.45213025,0.45213025 0 0 1 0.64021,0 l 0.58415,0.585057 0.58416,-0.585057 a 0.45213025,0.45213025 0 0 1 0.64021,0 l 0.58416,0.585057 0.58415,-0.585057 a 0.45213025,0.45213025 0 0 1 0.64021,0 l 0.58416,0.585057 0.71708,-0.717079 -0.90427,-0.90426 h -5.99524 a 0.45213025,0.45213025 0 0 1 -0.40782,-0.257715 2.7127815,2.7127815 0 0 0 -2.45236,-1.550806"
         id="path8192-2-63"
         style="fill:#000000;stroke-width:0.904261" /><path
         d="m 348.38255,13.055275 a 0.90426049,0.90426049 0 1 1 -1.80852,0 0.90426049,0.90426049 0 0 1 1.80852,0"
         id="path8194-4-5"
         style="fill:#000000;stroke-width:0.904261" /></g><path
       id="path8628-3-9-9"
       style="fill:none;stroke:#000000;stroke-width:1.41732;stroke-linecap:round;stroke-dasharray:none"
       inkscape:transform-center-x="0.0044216181"
       inkscape:transform-center-y="-0.38017535"
       d="m 344.2908,7.2425709 7.57406,-2.7730835 7.59384,2.7594206"
       sodipodi:nodetypes="ccc" /><rect
       style="fill:#d8e1e5;fill-opacity:1;stroke:none;stroke-width:1.83662;stroke-linecap:round;stroke-linejoin:miter;stroke-dasharray:none;stroke-opacity:1"
       id="rect12115-5-1-1-8"
       width="3.7795277"
       height="7.3430815"
       x="356.63834"
       y="4.0974469" /><path
       d="m 360.07609,8.575987 q 0,0.468 -0.294,0.792 -0.294,0.318 -0.816,0.426 v 0.948 h -0.684 v -0.912 q -0.792,-0.066 -1.302,-0.564 l 0.486,-0.528 q 0.432,0.402 0.996,0.402 0.294,0 0.462,-0.132 0.168,-0.132 0.168,-0.36 0,-0.15 -0.06,-0.246 -0.06,-0.102 -0.216,-0.18 -0.156,-0.084 -0.45,-0.174 -0.66,-0.21 -0.942,-0.498 -0.276,-0.288 -0.276,-0.738 0,-0.45 0.312,-0.75 0.312,-0.306 0.822,-0.378 v -0.888 h 0.684 v 0.888 q 0.594,0.096 0.996,0.486 l -0.438,0.516 q -0.396,-0.336 -0.87,-0.336 -0.252,0 -0.396,0.102 -0.144,0.102 -0.144,0.288 0,0.132 0.06,0.216 0.066,0.084 0.228,0.162 0.162,0.072 0.486,0.174 0.606,0.192 0.894,0.48 0.294,0.288 0.294,0.804 z"
       style="font-weight:bold;font-size:6px;font-family:'Fira Sans';-inkscape-font-specification:'Fira Sans Bold';fill:#050500;stroke-width:1.41732;stroke-linecap:round"
       id="path13658-2-2-3-8" /><path
       id="rect466-51-8-4"
       style="fill:#d8e1e5;stroke:#136329;stroke-width:2.59515;stroke-linecap:round;stroke-linejoin:bevel;stroke-dasharray:none;fill-opacity:1"
       d="m 311.28633,1.2975728 c -2.20968,0 -3.98875,2.135904 -3.98875,4.7887837 V 22.20691 c 0,2.652878 1.77907,4.788782 3.98875,4.788782 h 4.87432 c 0.38328,1.664728 0.88482,6.706735 1.64348,6.706735 0.75864,0 1.26067,-5.042032 1.64396,-6.706735 h 5.2656 c 2.20968,0 3.98874,-2.135904 3.98874,-4.788782 V 6.0863565 c 0,-2.6528797 -1.77906,-4.7887837 -3.98874,-4.7887837 z" /><g
       id="g14094"
       transform="translate(0,0.5)"><path
         d="m 310.76551,13.055275 a 3.617042,3.617042 0 0 1 6.7503,-1.808521 h 5.90935 a 0.45213025,0.45213025 0 0 1 0.32011,0.132022 l 1.35639,1.356391 a 0.45213025,0.45213025 0 0 1 0,0.640216 l -1.35639,1.356391 a 0.45213025,0.45213025 0 0 1 -0.64022,0 l -0.58415,-0.585056 -0.58416,0.585056 a 0.45213025,0.45213025 0 0 1 -0.64021,0 l -0.58415,-0.585056 -0.58416,0.585056 a 0.45213025,0.45213025 0 0 1 -0.64021,0 l -0.58416,-0.585056 -0.58415,0.585056 a 0.45213025,0.45213025 0 0 1 -0.32011,0.132022 h -0.48378 a 3.617042,3.617042 0 0 1 -6.7503,-1.808521 m 3.61704,-2.712781 a 2.7127815,2.7127815 0 1 0 2.45236,3.874756 0.45213025,0.45213025 0 0 1 0.40782,-0.257714 h 0.56968 l 0.77134,-0.772239 a 0.45213025,0.45213025 0 0 1 0.64021,0 l 0.58415,0.585057 0.58416,-0.585057 a 0.45213025,0.45213025 0 0 1 0.64021,0 l 0.58416,0.585057 0.58415,-0.585057 a 0.45213025,0.45213025 0 0 1 0.64021,0 l 0.58416,0.585057 0.71708,-0.717079 -0.90427,-0.90426 h -5.99524 a 0.45213025,0.45213025 0 0 1 -0.40782,-0.257715 2.7127815,2.7127815 0 0 0 -2.45236,-1.550806"
         id="path8192-2-6"
         style="fill:#000000;stroke-width:0.904261" /><path
         d="m 314.38255,13.055275 a 0.90426049,0.90426049 0 1 1 -1.80852,0 0.90426049,0.90426049 0 0 1 1.80852,0"
         id="path8194-4-3"
         style="fill:#000000;stroke-width:0.904261" /></g><path
       id="path8628-7-3"
       style="fill:none;stroke:#000000;stroke-width:1.41732;stroke-linecap:round;stroke-dasharray:none"
       inkscape:transform-center-x="0.0044216181"
       inkscape:transform-center-y="-0.38017535"
       d="m 310.2908,7.2425709 7.57406,-2.7730835 7.59384,2.7594206"
       sodipodi:nodetypes="ccc" /><rect
       style="fill:#d8e1e5;fill-opacity:1;stroke:none;stroke-width:1.83662;stroke-linecap:round;stroke-linejoin:miter;stroke-dasharray:none;stroke-opacity:1"
       id="rect12115-5-18-8"
       width="3.7795277"
       height="7.3430815"
       x="322.63834"
       y="4.0974469" /><path
       d="m 326.07609,8.575987 q 0,0.468 -0.294,0.792 -0.294,0.318 -0.816,0.426 v 0.948 h -0.684 v -0.912 q -0.792,-0.066 -1.302,-0.564 l 0.486,-0.528 q 0.432,0.402 0.996,0.402 0.294,0 0.462,-0.132 0.168,-0.132 0.168,-0.36 0,-0.15 -0.06,-0.246 -0.06,-0.102 -0.216,-0.18 -0.156,-0.084 -0.45,-0.174 -0.66,-0.21 -0.942,-0.498 -0.276,-0.288 -0.276,-0.738 0,-0.45 0.312,-0.75 0.312,-0.306 0.822,-0.378 v -0.888 h 0.684 v 0.888 q 0.594,0.096 0.996,0.486 l -0.438,0.516 q -0.396,-0.336 -0.87,-0.336 -0.252,0 -0.396,0.102 -0.144,0.102 -0.144,0.288 0,0.132 0.06,0.216 0.066,0.084 0.228,0.162 0.162,0.072 0.486,0.174 0.606,0.192 0.894,0.48 0.294,0.288 0.294,0.804 z"
       style="font-weight:bold;font-size:6px;font-family:'Fira Sans';-inkscape-font-specification:'Fira Sans Bold';fill:#050500;stroke-width:1.41732;stroke-linecap:round"
       id="path13658-2-8-9" /><g
       id="g14130"
       transform="translate(0,0.5)"
       style="fill:#000000;fill-opacity:1"><path
         d="m 4.7655121,13.055275 a 3.617042,3.617042 0 0 1 6.7503049,-1.808521 h 5.909342 a 0.45213025,0.45213025 0 0 1 0.320108,0.132022 l 1.356391,1.356391 a 0.45213025,0.45213025 0 0 1 0,0.640216 l -1.356391,1.356391 a 0.45213025,0.45213025 0 0 1 -0.640216,0 l -0.584153,-0.585056 -0.584152,0.585056 a 0.45213025,0.45213025 0 0 1 -0.640216,0 l -0.584153,-0.585056 -0.584152,0.585056 a 0.45213025,0.45213025 0 0 1 -0.640216,0 l -0.584152,-0.585056 -0.584153,0.585056 a 0.45213025,0.45213025 0 0 1 -0.320108,0.132022 H 11.515817 A 3.617042,3.617042 0 0 1 4.7655121,13.055275 m 3.617042,-2.712781 a 2.7127815,2.7127815 0 1 0 2.4523549,3.874756 0.45213025,0.45213025 0 0 1 0.407821,-0.257714 h 0.569684 l 0.771334,-0.772239 a 0.45213025,0.45213025 0 0 1 0.640217,0 l 0.584152,0.585057 0.584152,-0.585057 a 0.45213025,0.45213025 0 0 1 0.640217,0 l 0.584152,0.585057 0.584152,-0.585057 a 0.45213025,0.45213025 0 0 1 0.640217,0 l 0.584152,0.585057 0.717079,-0.717079 -0.904261,-0.90426 H 11.24273 A 0.45213025,0.45213025 0 0 1 10.834909,11.8933 2.7127815,2.7127815 0 0 0 8.3825541,10.342494"
         id="path8192"
         style="fill:#000000;stroke-width:0.904261;fill-opacity:1" /><path
         d="m 8.3825541,13.055275 a 0.9042605,0.9042605 0 1 1 -1.808521,0 0.9042605,0.9042605 0 0 1 1.808521,0"
         id="path8194"
         style="fill:#000000;stroke-width:0.904261;fill-opacity:1" /></g></g></svg>
