<svg id="beta_tester_expand" xmlns="http://www.w3.org/2000/svg" viewBox="0 0 144 144"><defs><style>.cls-1{fill:#25c252;}</style></defs><title>become_betatester_icon</title><path class="cls-1" d="M128.5,33.7h0l-.2-.5h-.1l-.3-.4L99.7,4.7l-.5-.3c0-.1,0-.1-.1-.1l-.5-.2H19.9a4.4,4.4,0,0,0-4.4,4.4v127a4.4,4.4,0,0,0,4.4,4.4H124.1a4.4,4.4,0,0,0,4.4-4.4V33.7Zm-6.9-1.6H100.3V10.9Zm2.5,103.8H19.9a.4.4,0,0,1-.4-.4V8.5a.4.4,0,0,1,.4-.4H96.3v26a1.9,1.9,0,0,0,2,2h26.2v99.4A.4.4,0,0,1,124.1,135.9Z"/><path class="cls-1" d="M59.8,32.1H32.5a2,2,0,0,0-2,2V61.3a1.9,1.9,0,0,0,2,2H59.8a1.9,1.9,0,0,0,2-2V34.1A2,2,0,0,0,59.8,32.1Zm-2,27.2H34.5V36.1H57.8Z"/><path class="cls-1" d="M59.8,65.5H32.5a2,2,0,0,0-2,2V94.7a2,2,0,0,0,2,2H59.8a2,2,0,0,0,2-2V67.5A2,2,0,0,0,59.8,65.5Zm-2,27.2H34.5V69.5H57.8Z"/><path class="cls-1" d="M59.8,98.8H32.5a2,2,0,0,0-2,2v27.3a2,2,0,0,0,2,2H59.8a2,2,0,0,0,2-2V100.8A2,2,0,0,0,59.8,98.8Zm-2,27.3H34.5V102.8H57.8Z"/><path class="cls-1" d="M115.3,41.8H69a2,2,0,0,0-2,2,1.9,1.9,0,0,0,2,2h46.3a1.9,1.9,0,0,0,2-2A2,2,0,0,0,115.3,41.8Z"/><path class="cls-1" d="M69,52.8H94.8a1.9,1.9,0,0,0,2-2,2,2,0,0,0-2-2H69a2,2,0,0,0-2,2A1.9,1.9,0,0,0,69,52.8Z"/><path class="cls-1" d="M115.3,77.8H69a2,2,0,0,0-2,2,1.9,1.9,0,0,0,2,2h46.3a1.9,1.9,0,0,0,2-2A2,2,0,0,0,115.3,77.8Z"/><path class="cls-1" d="M115.3,70.8H69a2,2,0,0,0-2,2,1.9,1.9,0,0,0,2,2h46.3a1.9,1.9,0,0,0,2-2A2,2,0,0,0,115.3,70.8Z"/><path class="cls-1" d="M69,88.8H94.8a1.9,1.9,0,0,0,2-2,2,2,0,0,0-2-2H69a2,2,0,0,0-2,2A1.9,1.9,0,0,0,69,88.8Z"/><path class="cls-1" d="M115.3,112.5H69a2,2,0,0,0,0,4h46.3a2,2,0,1,0,0-4Z"/><path class="cls-1" d="M115.3,105.5H69a2,2,0,0,0,0,4h46.3a2,2,0,1,0,0-4Z"/><path class="cls-1" d="M94.8,119.5H69a2,2,0,0,0,0,4H94.8a2,2,0,1,0,0-4Z"/><path class="cls-1" d="M43,57.1a2,2,0,0,0,1.6.7h.1a2.1,2.1,0,0,0,1.6-.8l10-14.3A2,2,0,1,0,53,40.4L44.6,52.5l-5.3-6.9a1.9,1.9,0,0,0-2.8-.4,2,2,0,0,0-.3,2.8Z"/><path class="cls-1" d="M43,89.6a2.1,2.1,0,0,0,1.6.8h.1a2.2,2.2,0,0,0,1.6-.9l10-14.2a2,2,0,0,0-.5-2.8A2,2,0,0,0,53,73L44.6,85l-5.3-6.9a1.9,1.9,0,0,0-2.8-.4,2,2,0,0,0-.3,2.8Z"/></svg>