<svg id="promote_bs_expand" xmlns="http://www.w3.org/2000/svg" viewBox="0 0 144 144"><defs><style>.cls-1{fill:#25c252;}</style></defs><title>promote_bs_icon</title><path class="cls-1" d="M133.6,33.1H118.7V14.7a3.9,3.9,0,0,0-3.9-3.8H10.7a3.9,3.9,0,0,0-3.9,3.8V85.4a3.9,3.9,0,0,0,3.9,3.8h5.6v17.9a2.1,2.1,0,0,0,1.3,1.9h.7a2,2,0,0,0,1.5-.6L39,89.2h2.3V109a3.9,3.9,0,0,0,3.6,3.9h64.3l16.3,19.5a2,2,0,0,0,1.6.7h.7a2.1,2.1,0,0,0,1.3-1.9V112.9h4.5a3.9,3.9,0,0,0,3.6-3.9V37A3.9,3.9,0,0,0,133.6,33.1ZM38.2,85.2a2.5,2.5,0,0,0-1.4.6L20.3,102.3V87.2a2,2,0,0,0-2-2H10.8V14.9H114.7V85.2H38.2Zm94.9,23.7h-6a2,2,0,0,0-2,2v14.7l-13.4-16a1.9,1.9,0,0,0-1.5-.7H45.3V89.2h69.5a3.9,3.9,0,0,0,3.9-3.8V79.1h6.8a2,2,0,0,0,0-4h-6.8V73.5h6.8a2,2,0,0,0,0-4h-6.8V61.3h6.8a2,2,0,0,0,0-4h-6.8V55h6.1a2,2,0,1,0,0-4h-6.1V37.1h14.5Z"/><path class="cls-1" d="M57,58.1a15,15,0,0,0-.4-3.7l4.2,5.5a.1.1,0,0,1,.1.1h0a1.7,1.7,0,0,0,1.1.6h6.7a18.3,18.3,0,1,0,18.2-21,18.7,18.7,0,0,0-10.7,3.4L73.5,40l3.6-7.4h5.4a2,2,0,0,0,0-4h-12a2,2,0,0,0,0,4h2.1l-2.5,5.3H51.3l5.9-11.4h4.5a2,2,0,0,0,0-4H56a2.2,2.2,0,0,0-1.8,1L45.2,41a17.6,17.6,0,0,0-6.6-1.3A18.4,18.4,0,1,0,57,58.1Zm25.5-1.4H72.6a13.4,13.4,0,0,1,3.3-7.8Zm4.4-13a14.4,14.4,0,1,1-14.2,17H86.9a2.1,2.1,0,0,0,1.8-1.2,2,2,0,0,0-.3-2.1L78.8,46.2A14.1,14.1,0,0,1,86.9,43.7Zm-15.3.2,1.6,1.9a18.3,18.3,0,0,0-4.6,10.9h-3Zm-3.4-2L62,54.9l-9.9-13ZM38.6,72.4a14.4,14.4,0,0,1,0-28.7,15.1,15.1,0,0,1,4.8.8L36.9,57.2a2,2,0,0,0,.8,2.7l.9.2A1.9,1.9,0,0,0,40.4,59l6.5-12.6A14.2,14.2,0,0,1,53,58.1,14.3,14.3,0,0,1,38.6,72.4Z"/><path class="cls-1" d="M125.5,91.5H54.7a2,2,0,1,0,0,4h70.8a2,2,0,0,0,0-4Z"/><path class="cls-1" d="M86.5,97.5H54a2,2,0,0,0,0,4H86.5a2,2,0,0,0,0-4Z"/><path class="cls-1" d="M103.5,97.5H92.7a2,2,0,1,0,0,4h10.8a2,2,0,0,0,0-4Z"/></svg>