<?xml version="1.0" encoding="UTF-8" standalone="no"?>
<!-- Created with Inkscape (http://www.inkscape.org/) -->

<svg
   width="96"
   height="140"
   viewBox="0 0 24 35"
   version="1.1"
   id="svg5"
   xml:space="preserve"
   xmlns="http://www.w3.org/2000/svg"
   xmlns:svg="http://www.w3.org/2000/svg"><defs
     id="defs2" /><g
     id="layer1"><path
       id="rect466"
       style="fill:#d8e1e5;fill-opacity:1;stroke:#136329;stroke-width:2.59515;stroke-linecap:round;stroke-linejoin:bevel;stroke-dasharray:none"
       d="m 5.2863174,1.2975735 c -2.2096748,0 -3.9887425,2.1359035 -3.9887425,4.788783 V 22.20691 c 0,2.652879 1.7790677,4.788783 3.9887425,4.788783 H 10.16064 c 0.383285,1.664727 0.884833,6.706734 1.643476,6.706734 0.758647,0 1.260678,-5.042032 1.643961,-6.706734 h 5.265605 c 2.209674,0 3.988743,-2.135904 3.988743,-4.788783 V 6.0863566 c 0,-2.6528796 -1.779069,-4.7887831 -3.988743,-4.7887831 z" /><g
       id="g14130"
       transform="translate(0,0.5)"
       style="fill:#000000;fill-opacity:1"><path
         d="m 4.7655121,13.055275 a 3.617042,3.617042 0 0 1 6.7503049,-1.808521 h 5.909342 a 0.45213025,0.45213025 0 0 1 0.320108,0.132022 l 1.356391,1.356391 a 0.45213025,0.45213025 0 0 1 0,0.640216 l -1.356391,1.356391 a 0.45213025,0.45213025 0 0 1 -0.640216,0 l -0.584153,-0.585056 -0.584152,0.585056 a 0.45213025,0.45213025 0 0 1 -0.640216,0 l -0.584153,-0.585056 -0.584152,0.585056 a 0.45213025,0.45213025 0 0 1 -0.640216,0 l -0.584152,-0.585056 -0.584153,0.585056 a 0.45213025,0.45213025 0 0 1 -0.320108,0.132022 H 11.515817 A 3.617042,3.617042 0 0 1 4.7655121,13.055275 m 3.617042,-2.712781 a 2.7127815,2.7127815 0 1 0 2.4523549,3.874756 0.45213025,0.45213025 0 0 1 0.407821,-0.257714 h 0.569684 l 0.771334,-0.772239 a 0.45213025,0.45213025 0 0 1 0.640217,0 l 0.584152,0.585057 0.584152,-0.585057 a 0.45213025,0.45213025 0 0 1 0.640217,0 l 0.584152,0.585057 0.584152,-0.585057 a 0.45213025,0.45213025 0 0 1 0.640217,0 l 0.584152,0.585057 0.717079,-0.717079 -0.904261,-0.90426 H 11.24273 A 0.45213025,0.45213025 0 0 1 10.834909,11.8933 2.7127815,2.7127815 0 0 0 8.3825541,10.342494"
         id="path8192"
         style="fill:#000000;fill-opacity:1;stroke-width:0.904261" /><path
         d="m 8.3825541,13.055275 a 0.9042605,0.9042605 0 1 1 -1.808521,0 0.9042605,0.9042605 0 0 1 1.808521,0"
         id="path8194"
         style="fill:#000000;fill-opacity:1;stroke-width:0.904261" /></g></g></svg>
