<?xml version="1.0" encoding="UTF-8" standalone="no"?>
<!-- Created with Inkscape (http://www.inkscape.org/) -->

<svg
   width="96"
   height="140"
   viewBox="0 0 24 35"
   version="1.1"
   id="svg5"
   xml:space="preserve"
   xmlns="http://www.w3.org/2000/svg"
   xmlns:svg="http://www.w3.org/2000/svg"><defs
     id="defs2" /><g
     id="layer1"
     transform="translate(-238)"><path
       id="rect466-5-9-9"
       style="fill:#d8e1e5;fill-opacity:1;stroke:#ed125b;stroke-width:2.59515;stroke-linecap:round;stroke-linejoin:bevel;stroke-dasharray:none;stroke-opacity:1"
       d="m 243.28632,1.2975728 c -2.20967,0 -3.98875,2.135904 -3.98875,4.7887837 V 22.20691 c 0,2.652878 1.77907,4.788782 3.98875,4.788782 h 4.87433 c 0.38328,1.664728 0.88482,6.706735 1.64348,6.706735 0.75865,0 1.26067,-5.042032 1.64396,-6.706735 h 5.26559 c 2.20968,0 3.98874,-2.135904 3.98874,-4.788782 V 6.0863565 c 0,-2.6528797 -1.77904,-4.7887837 -3.98874,-4.7887837 z" /><g
       id="g14102"
       transform="translate(0,0.5)"><path
         d="m 242.76551,13.055275 a 3.617042,3.617042 0 0 1 6.7503,-1.808521 h 5.90935 a 0.45213025,0.45213025 0 0 1 0.32011,0.132022 l 1.35639,1.356391 a 0.45213025,0.45213025 0 0 1 0,0.640216 l -1.35639,1.356391 a 0.45213025,0.45213025 0 0 1 -0.64022,0 l -0.58415,-0.585056 -0.58416,0.585056 a 0.45213025,0.45213025 0 0 1 -0.64021,0 l -0.58415,-0.585056 -0.58416,0.585056 a 0.45213025,0.45213025 0 0 1 -0.64021,0 l -0.58416,-0.585056 -0.58415,0.585056 a 0.45213025,0.45213025 0 0 1 -0.32011,0.132022 h -0.48378 a 3.617042,3.617042 0 0 1 -6.7503,-1.808521 m 3.61704,-2.712781 a 2.7127815,2.7127815 0 1 0 2.45236,3.874756 0.45213025,0.45213025 0 0 1 0.40782,-0.257714 h 0.56968 l 0.77134,-0.772239 a 0.45213025,0.45213025 0 0 1 0.64021,0 l 0.58415,0.585057 0.58416,-0.585057 a 0.45213025,0.45213025 0 0 1 0.64021,0 l 0.58416,0.585057 0.58415,-0.585057 a 0.45213025,0.45213025 0 0 1 0.64021,0 l 0.58416,0.585057 0.71708,-0.717079 -0.90427,-0.90426 h -5.99524 a 0.45213025,0.45213025 0 0 1 -0.40782,-0.257715 2.7127815,2.7127815 0 0 0 -2.45236,-1.550806"
         id="path8192-11"
         style="fill:#000000;stroke-width:0.904261" /><path
         d="m 246.38255,13.055275 a 0.90426049,0.90426049 0 1 1 -1.80852,0 0.90426049,0.90426049 0 0 1 1.80852,0"
         id="path8194-26"
         style="fill:#000000;stroke-width:0.904261" /></g><path
       id="path8628-3-9"
       style="fill:none;stroke:#000000;stroke-width:1.41732;stroke-linecap:round;stroke-dasharray:none"
       d="m 242.2908,7.2425709 7.57406,-2.7730835 7.59384,2.7594206" /></g></svg>
