<?xml version="1.0" encoding="UTF-8" standalone="no"?>
<svg
   width="16"
   height="16"
   fill="currentColor"
   class="bi bi-funnel"
   viewBox="0 0 16 16"
   version="1.1"
   id="svg1091"
   sodipodi:docname="clear-filter.svg"
   xml:space="preserve"
   inkscape:version="1.2.1 (9c6d41e, 2022-07-14)"
   xmlns:inkscape="http://www.inkscape.org/namespaces/inkscape"
   xmlns:sodipodi="http://sodipodi.sourceforge.net/DTD/sodipodi-0.dtd"
   xmlns="http://www.w3.org/2000/svg"
   xmlns:svg="http://www.w3.org/2000/svg"><defs
     id="defs1095"><inkscape:path-effect
       effect="powerclip"
       id="path-effect7100"
       is_visible="true"
       lpeversion="1"
       inverse="true"
       flatten="false"
       hide_clip="false"
       message="Use fill-rule evenodd on &lt;b&gt;fill and stroke&lt;/b&gt; dialog if no flatten result after convert clip to paths." /><clipPath
       clipPathUnits="userSpaceOnUse"
       id="clipPath7096"><circle
         style="display:none;fill:#ffffff;fill-opacity:1;stroke:none;stroke-width:0.937816;stroke-linejoin:bevel"
         id="circle7098"
         cx="11.39746"
         cy="9.306716"
         r="3.5402298"
         d="M 14.93769,9.306716 A 3.5402298,3.5402298 0 0 1 11.39746,12.846946 3.5402298,3.5402298 0 0 1 7.8572302,9.306716 3.5402298,3.5402298 0 0 1 11.39746,5.7664862 3.5402298,3.5402298 0 0 1 14.93769,9.306716 Z" /><path
         id="lpe_path-effect7100"
         style="fill:#ffffff;fill-opacity:1;stroke:none;stroke-width:0.937816;stroke-linejoin:bevel"
         class="powerclip"
         d="m -3.5,-4 h 23 v 23.99962 h -23 z M 14.93769,9.306716 A 3.5402298,3.5402298 0 0 0 11.39746,5.7664862 3.5402298,3.5402298 0 0 0 7.8572302,9.306716 a 3.5402298,3.5402298 0 0 0 3.5402298,3.54023 3.5402298,3.5402298 0 0 0 3.54023,-3.54023 z" /></clipPath></defs><sodipodi:namedview
     id="namedview1093"
     pagecolor="#ffffff"
     bordercolor="#000000"
     borderopacity="0.25"
     inkscape:showpageshadow="2"
     inkscape:pageopacity="0.0"
     inkscape:pagecheckerboard="0"
     inkscape:deskcolor="#d1d1d1"
     showgrid="false"
     inkscape:zoom="34.4375"
     inkscape:cx="4.9219601"
     inkscape:cy="7.0998185"
     inkscape:window-width="1280"
     inkscape:window-height="771"
     inkscape:window-x="0"
     inkscape:window-y="33"
     inkscape:window-maximized="1"
     inkscape:current-layer="svg1091" /><path
     d="M 1.5,1.5 A 0.5,0.5 0 0 1 2,1 h 12 a 0.5,0.5 0 0 1 0.5,0.5 v 2 A 0.5,0.5 0 0 1 14.372,3.834 L 10,8.692 V 13.5 a 0.5,0.5 0 0 1 -0.342,0.474 l -3,1 A 0.5,0.5 0 0 1 6,14.5 V 8.692 L 1.628,3.834 A 0.5,0.5 0 0 1 1.5,3.5 Z M 2.5,2 V 3.308 L 6.872,8.166 A 0.5,0.5 0 0 1 7,8.5 v 5.306 L 9,13.14 V 8.5 A 0.5,0.5 0 0 1 9.128,8.166 L 13.5,3.308 V 2 Z"
     id="path1089"
     clip-path="url(#clipPath7096)"
     inkscape:path-effect="#path-effect7100"
     inkscape:original-d="M1.5 1.5A.5.5 0 0 1 2 1h12a.5.5 0 0 1 .5.5v2a.5.5 0 0 1-.128.334L10 8.692V13.5a.5.5 0 0 1-.342.474l-3 1A.5.5 0 0 1 6 14.5V8.692L1.628 3.834A.5.5 0 0 1 1.5 3.5zm1 .5v1.308l4.372 4.858A.5.5 0 0 1 7 8.5v5.306l2-.666V8.5a.5.5 0 0 1 .128-.334L13.5 3.308V2z" /><g
     style="fill:currentColor"
     id="g2082"
     transform="matrix(0.48275863,0,0,0.48275863,7.5353902,5.4446461)"><path
       d="M 8,15 A 7,7 0 1 1 8,1 7,7 0 0 1 8,15 m 0,1 A 8,8 0 1 0 8,0 8,8 0 0 0 8,16"
       id="path2070" /><path
       d="m 4.646,4.646 a 0.5,0.5 0 0 1 0.708,0 L 8,7.293 10.646,4.646 a 0.5006316,0.5006316 0 0 1 0.708,0.708 L 8.707,8 l 2.647,2.646 a 0.5006316,0.5006316 0 0 1 -0.708,0.708 L 8,8.707 5.354,11.354 A 0.5006316,0.5006316 0 0 1 4.646,10.646 L 7.293,8 4.646,5.354 a 0.5,0.5 0 0 1 0,-0.708"
       id="path2072" /></g></svg>
