<svg height="140" viewBox="0 0 24 35" width="96" xmlns="http://www.w3.org/2000/svg"><g stroke-linecap="round"><path d="m5.2863174 1.2975735c-2.2096748 0-3.9887425 2.1359035-3.9887425 4.788783v16.1205535c0 2.652879 1.7790677 4.788783 3.9887425 4.788783h4.8743226c.383285 1.664727.884833 6.706734 1.643476 6.706734.758647 0 1.260678-5.042032 1.643961-6.706734h5.265605c2.209674 0 3.988743-2.135904 3.988743-4.788783v-16.1205534c0-2.6528796-1.779069-4.7887831-3.988743-4.7887831z" fill="#fff" stroke="#136329" stroke-linejoin="bevel" stroke-width="2.59515"/><path d="m16.129659 10.301395a4.1296583 4.1296583 0 0 1 -4.129659 4.129658 4.1296583 4.1296583 0 0 1 -4.1296586-4.129658 4.1296583 4.1296583 0 0 1 4.1296586-4.1296584 4.1296583 4.1296583 0 0 1 4.129659 4.1296584zm-4.129659-5.5928677v14.2859027" fill="none" stroke="#000" stroke-linejoin="round" stroke-width="1.18891"/></g></svg>