<svg height="140" viewBox="0 0 24 35" width="96" xmlns="http://www.w3.org/2000/svg"><g stroke-linecap="round" stroke-linejoin="bevel"><path d="m5.2863174 1.2975735c-2.2096748 0-3.9887425 2.1359035-3.9887425 4.788783v16.1205535c0 2.652879 1.7790677 4.788783 3.9887425 4.788783h4.8743226c.383285 1.664727.884833 6.706734 1.643476 6.706734.758647 0 1.260678-5.042032 1.643961-6.706734h5.265605c2.209674 0 3.988743-2.135904 3.988743-4.788783v-16.1205534c0-2.6528796-1.779069-4.7887831-3.988743-4.7887831z" fill="#fff" stroke="#136329" stroke-width="2.59515"/><g fill="none" stroke="#000" transform="matrix(2.1405676 0 0 2.1405676 -3.062972 -1.606338)"><path d="m3.9500283 8.1324113.9954859 1.4433491c.2026771.2395274.8639113.8792346.4094336-.4534567-.3925336-1.1510488-1.4894121-4.1794876-1.4894121-4.1794876s-.1901081-.9716645.6548176-1.2462655c.8449259-.274601 3.0628563-.7181869 3.0628563-.7181869s.866049-.1689854 1.1828962.6336943c.316847.8026797 1.2954872 3.4278061 1.2954872 3.4278061.101339.2763778.523801 1.7594731-.5746022.9154684-.9737784-.7482441-1.5235646-1.3015414-1.5235646-1.3015414" stroke-width=".529167"/><g stroke-width=".264583"><path d="m5.2239319 3.5394759 1.136833 2.8646542s.2085336.545385-.2139293.1440454c-.4224631-.4013399-1.1828962-1.1828963-1.1828962-1.1828963s-.1478621-.084492-.084493-.3168472c.063369-.2323547.3536977-1.5089561.3444855-1.5089561z"/><path d="m6.8650225 3.2529645 1.2040195 2.6403934s.1056156.3590933-.1689851.1689852c-.274601-.1901084-1.4786205-1.0561574-1.4786205-1.0561574s-.1901082-.1478621-.1056156-.4013399c.084493-.2534777.5492017-1.3518813.5492017-1.3518813z"/></g></g></g></svg>