<svg id="bike_expand" xmlns="http://www.w3.org/2000/svg" viewBox="0 0 144 144"><defs><style>.cls-1{fill:#25c252;}</style></defs><title>bike_friendly_icon</title><path class="cls-1" d="M112.5,57a29.3,29.3,0,0,0-18.1,6.2l-5.9-6.9,6.7-14h10a2,2,0,0,0,0-4H85a2,2,0,0,0,0,4h5.7L85.2,53.9H50.6L61.9,32h8.3a2,2,0,0,0,0-4H60.7a1.9,1.9,0,0,0-1.8,1.1L43.2,59.4A30.2,30.2,0,0,0,31.5,57,29.5,29.5,0,1,0,61,86.5a28.4,28.4,0,0,0-3.7-14.2L69.9,88.7h0a2.6,2.6,0,0,0,1.1.7H83.2A29.5,29.5,0,1,0,112.5,57Zm-4.3,28.5H87a26.1,26.1,0,0,1,7-16.6ZM31.5,112a25.5,25.5,0,1,1,9.9-49L29.7,85.6a2,2,0,0,0,.9,2.7l.9.2a2.1,2.1,0,0,0,1.8-1.1L44.9,64.8A25.5,25.5,0,0,1,31.5,112ZM46.8,61.3l.8-1.7,4.5,5.8A26,26,0,0,0,46.8,61.3ZM71.1,83.7,51.4,57.9c8.2.1,25.5,0,31.9,0ZM86.6,60.3l4.8,5.6A29.6,29.6,0,0,0,83,85.5H74.6ZM112.5,112A25.5,25.5,0,0,1,87.2,89.5h25.3a2,2,0,0,0,1.5-3.3L97,66.3A25.5,25.5,0,1,1,112.5,112Z"/><path class="cls-1" d="M31.3,54.1a1.8,1.8,0,0,0,1.9,1.4H43.4a2,2,0,0,0,1.8-1.1l5.9-11.5A1.9,1.9,0,0,0,51,41a1.9,1.9,0,0,0-1.7-1H29.4a2.1,2.1,0,0,0-1.6.8,2,2,0,0,0-.3,1.8ZM46,44l-3.8,7.5H34.6L32.2,44Z"/></svg>