<svg id="Layer_21" data-name="Layer 21" xmlns="http://www.w3.org/2000/svg" viewBox="0 0 144 144"><defs><style>.cls-1{fill:#25c252;}.cls-2{fill:none;stroke:#25c252;stroke-linecap:round;stroke-linejoin:round;stroke-width:4px;}</style></defs><title>community_icon</title><path class="cls-1" d="M53.6,80A18.5,18.5,0,1,0,72.1,61.5,18.5,18.5,0,0,0,53.6,80Zm33,0A14.5,14.5,0,1,1,72.1,65.5,14.5,14.5,0,0,1,86.6,80Z"/><path class="cls-1" d="M32.2,100.5a15,15,0,1,0-15-15A15,15,0,0,0,32.2,100.5Zm0-26a11,11,0,1,1-11,11A11,11,0,0,1,32.2,74.5Z"/><path class="cls-1" d="M97.1,85.5a15,15,0,1,0,15-15A15,15,0,0,0,97.1,85.5Zm15-11a11,11,0,1,1-11,11A11,11,0,0,1,112.1,74.5Z"/><path class="cls-1" d="M112.4,102.7a29.6,29.6,0,0,0-17.7,5.9,35.1,35.1,0,0,0-45.1.2A29.8,29.8,0,0,0,1.8,131.6a2,2,0,0,0,.6,1.5,2,2,0,0,0,1.4.6H37.4a1.7,1.7,0,0,1-.1.7,2,2,0,0,0,.6,1.5,2,2,0,0,0,1.4.6h65.8a1.8,1.8,0,0,0,1.4-.6,2,2,0,0,0,.6-1.5v-.7h33.1a2,2,0,0,0,1.4-.6,2,2,0,0,0,.6-1.5A29.6,29.6,0,0,0,112.4,102.7ZM6,129.7a25.5,25.5,0,0,1,25.6-23,25.3,25.3,0,0,1,14.8,4.7,34.4,34.4,0,0,0-9.2,18.3Zm35.5,2.8a30.9,30.9,0,0,1,61.5,0Zm65.4-2.8a35.1,35.1,0,0,0-9.2-18.4A25.8,25.8,0,0,1,138,129.7Z"/><path class="cls-2" d="M103.1,59.3V19.4h-2.3S92.9,32,79,32V50.6H72.9V29.1s-26.4,1-28.7-16.4H40.9V59.3"/></svg>