<svg id="data_driven_expand" xmlns="http://www.w3.org/2000/svg" viewBox="0 0 144 144"><defs><style>.cls-1{fill:#25c252;}</style></defs><title>data_driven_icon</title><path class="cls-1" d="M113.4,32h-.1c0-.2-.1-.3-.2-.5h0c-.1-.2-.3-.3-.4-.4h-.1a2.1,2.1,0,0,0-1-.4h-9.9a2,2,0,0,0,0,4h4.4L75.5,60.7,61.6,47a2.1,2.1,0,0,0-2.7-.1L33.2,69.1a2,2,0,0,0-.2,2.8,1.8,1.8,0,0,0,1.5.7,1.7,1.7,0,0,0,1.3-.5L60.1,51.2,74,64.9a2,2,0,0,0,2.7.1l33.2-28.3.4,5.4a2.1,2.1,0,0,0,2,1.9h.2a2,2,0,0,0,1.8-2.2l-.8-9.4C113.5,32.3,113.4,32.1,113.4,32Z"/><path class="cls-1" d="M136.6,12.9H7.4a2,2,0,0,0-2,2v93.6a2,2,0,0,0,2,2H55.8L52,121.1H44.9a2,2,0,0,0-2,2v4H30.3a2,2,0,0,0,0,4h83.4a2,2,0,1,0,0-4H101.1v-4a2,2,0,0,0-2-2H92l-3.8-10.6h48.4a2,2,0,0,0,2-2V14.9A2,2,0,0,0,136.6,12.9ZM97.1,125.1v2H46.9v-2Zm-9.4-4H56.3L60,110.5H84Zm46.9-14.6H9.4V92H134.6Zm0-18.5H9.4V16.9H134.6Z"/><path class="cls-1" d="M16,84.6H128a1.9,1.9,0,0,0,1.9-1.9V21.8a1.9,1.9,0,0,0-1.9-1.9H16a1.9,1.9,0,0,0-1.9,1.9V82.7A1.9,1.9,0,0,0,16,84.6Zm2-60.8H126V80.7H18Z"/><path class="cls-1" d="M73.4,105a6.2,6.2,0,0,0,6.2-6.2,6.1,6.1,0,0,0-6.2-6.1,6.1,6.1,0,0,0-6.1,6.1A6.1,6.1,0,0,0,73.4,105Zm0-8.3a2.1,2.1,0,0,1,2.2,2.1,2.2,2.2,0,0,1-2.2,2.2,2.1,2.1,0,0,1-2.1-2.2A2.1,2.1,0,0,1,73.4,96.7Z"/></svg>