<svg id="joinUs_exand" xmlns="http://www.w3.org/2000/svg" viewBox="0 0 144 144"><defs><style>.cls-1{fill:#25c252;}</style></defs><title>join_us_icon</title><path class="cls-1" d="M32,102.5a15,15,0,1,1,15-15A15,15,0,0,1,32,102.5Zm0-26a11,11,0,0,0,0,22,11,11,0,0,0,0-22Z"/><path class="cls-1" d="M59.8,135.5H4.3a1.8,1.8,0,0,1-1.4-.6,2,2,0,0,1-.6-1.4,29.6,29.6,0,0,1,29.7-29,29.6,29.6,0,0,1,29.8,29,2.1,2.1,0,0,1-2,2Zm-53.4-4H57.7a25.8,25.8,0,0,0-51.3,0Z"/><path class="cls-1" d="M111.9,102.5a15,15,0,1,1,15-15A15,15,0,0,1,111.9,102.5Zm0-26a11,11,0,1,0,11,11A11,11,0,0,0,111.9,76.5Z"/><path class="cls-1" d="M141.7,135.5H82.1v-2a29.7,29.7,0,0,1,59.4,0Zm-55.4-4h51.2a25.7,25.7,0,0,0-51.2,0Z"/><path class="cls-1" d="M72.8,38.5a15,15,0,1,1,15-15A15,15,0,0,1,72.8,38.5Zm0-26a11,11,0,1,0,11,11A11,11,0,0,0,72.8,12.5Z"/><path class="cls-1" d="M100.5,71.5H45a2,2,0,0,1-1.4-.6,2,2,0,0,1-.6-1.5,29.8,29.8,0,0,1,59.5,0,2.5,2.5,0,0,1-.5,1.5A2,2,0,0,1,100.5,71.5Zm-53.3-4H98.4a25.7,25.7,0,0,0-51.2,0Z"/><path class="cls-1" d="M83.7,17.9h-.8a2,2,0,1,1,.7-3.9h.5a2,2,0,0,1,1.6,2.3A2,2,0,0,1,83.7,17.9Z"/><path class="cls-1" d="M98.6,23a1.6,1.6,0,0,1-.9-.3l-.9-.4a1.9,1.9,0,0,1-.9-2.6,2,2,0,0,1,2.6-1l1,.5a2.2,2.2,0,0,1,.9,2.7A2.1,2.1,0,0,1,98.6,23Zm-7.3-3.1h-.6l-.9-.3A1.9,1.9,0,0,1,88.5,17,2,2,0,0,1,91,15.7l1,.3a2,2,0,0,1,1.2,2.6A2,2,0,0,1,91.3,19.9Z"/><path class="cls-1" d="M124.5,103.6a1.5,1.5,0,0,1-.9-.2,1.9,1.9,0,0,1-.8-2.7l.4-.8a2,2,0,1,1,3.6,1.8l-.5.9A2.2,2.2,0,0,1,124.5,103.6Zm3.2-7.2H127a2.1,2.1,0,0,1-1.2-2.5,3.6,3.6,0,0,0,.4-.9,2,2,0,0,1,2.5-1.3,2,2,0,0,1,1.2,2.6l-.3.9A2.1,2.1,0,0,1,127.7,96.4Zm2.2-7.5h-.4a2,2,0,0,1-1.5-2.4,4.4,4.4,0,0,1,.2-1,2,2,0,0,1,2.3-1.5,2,2,0,0,1,1.6,2.3,4.4,4.4,0,0,0-.2,1A2,2,0,0,1,129.9,88.9Zm1.2-7.8h-.2a1.9,1.9,0,0,1-1.8-2.1c0-.4.1-.7.1-1a1.9,1.9,0,0,1,2.1-1.8,1.9,1.9,0,0,1,1.9,2.1c0,.3-.1.7-.1,1A2,2,0,0,1,131.1,81.1Zm.2-7.8a2,2,0,0,1-2-1.9,3.8,3.8,0,0,1-.1-1,2,2,0,1,1,4-.2,3.8,3.8,0,0,0,.1,1,2.1,2.1,0,0,1-2,2.1Zm-.9-7.8a2,2,0,0,1-2-1.7,2.9,2.9,0,0,0-.2-.9,2,2,0,1,1,4-.8,3.6,3.6,0,0,0,.2,1,2.1,2.1,0,0,1-1.7,2.3Zm-1.9-7.7a1.9,1.9,0,0,1-1.9-1.4l-.3-.8a2,2,0,0,1,1.2-2.6,2.1,2.1,0,0,1,2.6,1.3l.3.9a2,2,0,0,1-1.3,2.5Zm-2.9-7.3a1.9,1.9,0,0,1-1.8-1.1,3.6,3.6,0,0,1-.4-.9,1.9,1.9,0,0,1,.9-2.6,1.9,1.9,0,0,1,2.6.9l.5.9a1.9,1.9,0,0,1-1,2.6A1.1,1.1,0,0,1,125.6,50.5Zm-3.9-6.8a1.9,1.9,0,0,1-1.6-.9l-.6-.8a2.1,2.1,0,0,1,.6-2.8,2,2,0,0,1,2.8.6,5.6,5.6,0,0,1,.5.8,2,2,0,0,1-.6,2.8A2,2,0,0,1,121.7,43.7ZM117,37.4a1.9,1.9,0,0,1-1.5-.7l-.6-.7a2,2,0,0,1,3-2.7l.7.8a2,2,0,0,1-.3,2.8A1.9,1.9,0,0,1,117,37.4Zm-5.5-5.6a2.4,2.4,0,0,1-1.3-.5l-.7-.7a2,2,0,0,1,2.6-3l.8.7a1.9,1.9,0,0,1,.1,2.8A1.8,1.8,0,0,1,111.5,31.8Zm-6.2-4.9-1.1-.3-.8-.5a2,2,0,0,1-.5-2.8,2,2,0,0,1,2.7-.6l.9.6a2,2,0,0,1,.5,2.8A2.1,2.1,0,0,1,105.3,26.9Z"/><path class="cls-1" d="M120.7,110a2.8,2.8,0,0,1-1.2-.4,2,2,0,0,1-.5-2.8l.3-.4a2,2,0,0,1,3.3,2.3l-.3.4A1.9,1.9,0,0,1,120.7,110Z"/><path class="cls-1" d="M23.3,110a2,2,0,0,1-1.7-.9l-.3-.4a2,2,0,0,1,.6-2.8,1.9,1.9,0,0,1,2.7.5l.3.4a2,2,0,0,1-.5,2.8A2.1,2.1,0,0,1,23.3,110Z"/><path class="cls-1" d="M19.4,103.6a2.1,2.1,0,0,1-1.8-1.1l-.5-.9a2,2,0,1,1,3.6-1.8l.5.8a2,2,0,0,1-.9,2.7A1.6,1.6,0,0,1,19.4,103.6Zm-3.2-7.3a2,2,0,0,1-1.9-1.4l-.4-.9a2.1,2.1,0,0,1,1.3-2.6,2,2,0,0,1,2.5,1.3l.3.9a1.9,1.9,0,0,1-1.2,2.5Z"/><path class="cls-1" d="M13.9,88.6A2,2,0,0,1,12,87c-.1-.4-.1-.7-.2-1a2.1,2.1,0,0,1,1.6-2.4,2,2,0,0,1,2.3,1.6c.1.3.1.6.2.9a2.1,2.1,0,0,1-1.5,2.4Zm-1.1-7.9a2.1,2.1,0,0,1-2-1.9,3.4,3.4,0,0,0-.1-1,2,2,0,0,1,1.9-2.1,1.9,1.9,0,0,1,2.1,1.8c0,.4.1.7.1,1A2,2,0,0,1,13,80.7Zm-.1-8h-.1a2.1,2.1,0,0,1-1.9-2.1c0-.4.1-.7.1-1.1a1.9,1.9,0,0,1,2.1-1.8,2,2,0,0,1,1.9,2.1c0,.3-.1.7-.1,1A1.9,1.9,0,0,1,12.7,72.7Zm1-8h-.4a2,2,0,0,1-1.6-2.3,4.4,4.4,0,0,0,.2-1,2.1,2.1,0,0,1,2.4-1.6,1.9,1.9,0,0,1,1.5,2.4c0,.3-.1.6-.1.9A2,2,0,0,1,13.7,64.7Zm2-7.7h-.6a2,2,0,0,1-1.3-2.5l.4-1a1.9,1.9,0,0,1,2.5-1.2,1.9,1.9,0,0,1,1.2,2.5l-.3,1A2,2,0,0,1,15.7,57Zm3.1-7.4a1.5,1.5,0,0,1-.9-.2,2,2,0,0,1-.9-2.7l.5-.9A2,2,0,1,1,21,47.7c-.1.3-.3.5-.4.8A2.1,2.1,0,0,1,18.8,49.6Zm4-6.9a2,2,0,0,1-1.1-.3,2,2,0,0,1-.5-2.8l.6-.8A2,2,0,1,1,25,41.1a5.6,5.6,0,0,0-.5.8A2.1,2.1,0,0,1,22.8,42.7Zm4.9-6.3a1.8,1.8,0,0,1-1.3-.5,1.9,1.9,0,0,1-.1-2.8l.7-.8a2,2,0,0,1,2.8-.1,2.2,2.2,0,0,1,.1,2.9l-.7.7A2,2,0,0,1,27.7,36.4Zm5.8-5.5a2.4,2.4,0,0,1-1.6-.7,2.1,2.1,0,0,1,.3-2.9l.8-.6a2,2,0,0,1,2.5,3.1l-.7.6A2.4,2.4,0,0,1,33.5,30.9Zm6.4-4.8a2,2,0,0,1-1.7-.9,2.1,2.1,0,0,1,.6-2.8l.9-.5a2,2,0,0,1,2.7.6,2.1,2.1,0,0,1-.6,2.8l-.8.5Zm7-3.9A2.1,2.1,0,0,1,45,21.1a2.1,2.1,0,0,1,1-2.7l.9-.4a2,2,0,0,1,2.7,1,2,2,0,0,1-1,2.6l-.9.5Zm7.4-2.8A2,2,0,0,1,52.4,18a2.2,2.2,0,0,1,1.3-2.6l1-.3A2,2,0,0,1,55.8,19l-.9.3Z"/><path class="cls-1" d="M62.1,17.5a2,2,0,0,1-2-1.7,2.1,2.1,0,0,1,1.7-2.3h.5a2.1,2.1,0,0,1,2.3,1.7,2,2,0,0,1-1.7,2.3h-.8Z"/><path class="cls-1" d="M60.2,134.2h-.9a2.1,2.1,0,0,1-1.5-2.4,2.1,2.1,0,0,1,2.4-1.6h.4a2.1,2.1,0,0,1,1.6,2.4A1.9,1.9,0,0,1,60.2,134.2Z"/><path class="cls-1" d="M68.4,135.3H67.3a2,2,0,0,1-1.8-2.2,1.9,1.9,0,0,1,2.1-1.8h.9a2,2,0,0,1,1.9,2.1A2.1,2.1,0,0,1,68.4,135.3Zm7.2,0a2.1,2.1,0,0,1-2-1.9,2,2,0,0,1,1.9-2.1h.9a1.9,1.9,0,0,1,2.1,1.8,2,2,0,0,1-1.8,2.2H75.6Z"/><path class="cls-1" d="M83.8,134.2a1.9,1.9,0,0,1-2-1.6,2.1,2.1,0,0,1,1.6-2.4h.4a2.1,2.1,0,0,1,2.4,1.6,2.1,2.1,0,0,1-1.5,2.4h-.9Z"/></svg>