<?xml version="1.0" encoding="UTF-8" standalone="no"?>
<!-- Created with Inkscape (http://www.inkscape.org/) -->

<svg
   width="130"
   height="130"
   viewBox="0 0 32.499999 32.5"
   version="1.1"
   id="svg1"
   inkscape:version="1.2.1 (9c6d41e, 2022-07-14)"
   sodipodi:docname="iconv4_abandoned.svg"
   xml:space="preserve"
   xmlns:inkscape="http://www.inkscape.org/namespaces/inkscape"
   xmlns:sodipodi="http://sodipodi.sourceforge.net/DTD/sodipodi-0.dtd"
   xmlns="http://www.w3.org/2000/svg"
   xmlns:svg="http://www.w3.org/2000/svg"><sodipodi:namedview
     id="namedview1"
     pagecolor="#ffffff"
     bordercolor="#000000"
     borderopacity="0.25"
     inkscape:showpageshadow="2"
     inkscape:pageopacity="0.0"
     inkscape:pagecheckerboard="false"
     inkscape:deskcolor="#d1d1d1"
     inkscape:document-units="mm"
     labelstyle="below"
     inkscape:zoom="4.2303824"
     inkscape:cx="46.567894"
     inkscape:cy="62.051128"
     inkscape:window-width="1280"
     inkscape:window-height="771"
     inkscape:window-x="0"
     inkscape:window-y="33"
     inkscape:window-maximized="1"
     inkscape:current-layer="layer1"
     showgrid="false" /><defs
     id="defs1"><rect
       x="44.666252"
       y="28.557112"
       width="42.957706"
       height="46.130718"
       id="rect1" /></defs><g
     inkscape:label="Layer 1"
     inkscape:groupmode="layer"
     id="layer1"
     transform="translate(-2.6679688,0.0776367)"><path
       id="bubble"
       style="display:inline;fill:#f5f4d6;fill-opacity:1;stroke:#8b8709;stroke-width:2.5;stroke-linejoin:round;stroke-dasharray:none;stroke-opacity:1"
       d="M 18.917969,1.2905559 A 12.081856,12.081856 0 0 0 6.8359374,13.372098 12.081856,12.081856 0 0 0 17.243164,25.334012 c 0.388898,1.340502 0.8987,5.694336 1.674805,5.694336 0.776105,0 1.285907,-4.353834 1.674805,-5.694336 A 12.081856,12.081856 0 0 0 31,13.372098 12.081856,12.081856 0 0 0 18.917969,1.2905559 Z"
       inkscape:label="bubble"
       class="icon-shape" /><g
       style="fill:currentColor"
       id="g4532"
       transform="matrix(0.81875615,0,0,0.81875615,12.367496,6.8166665)"><path
         d="M 1,0 0,1 2.2,4.081 A 1,1 0 0 0 3.015,4.5 h 0.07 A 1,1 0 0 1 3.793,4.793 L 6.468,7.468 3.851,10.122 A 3.003,3.003 0 0 0 0,13 3,3 0 1 0 5.878,12.149 L 8.532,9.532 9.5,10.5 9.195,11.414 a 1,1 0 0 0 0.242,1.023 l 3.27,3.27 a 0.997,0.997 0 0 0 1.414,0 l 1.586,-1.586 a 0.997,0.997 0 0 0 0,-1.414 l -3.27,-3.27 A 1,1 0 0 0 11.414,9.195 L 10.5,9.5 9.54,8.54 12.22,5.897 A 3.005,3.005 0 0 0 16,3 Q 16,2.595 15.898,2.223 L 13.758,4.364 12,4 11.636,2.243 13.777,0.102 a 3,3 0 0 0 -3.675,3.68 L 7.462,6.46 4.793,3.793 A 1,1 0 0 1 4.5,3.086 V 3.015 A 1,1 0 0 0 4.081,2.201 Z m 9.646,10.646 a 0.5,0.5 0 0 1 0.708,0 l 2.914,2.915 a 0.5,0.5 0 0 1 -0.707,0.707 l -2.915,-2.914 a 0.5,0.5 0 0 1 0,-0.708 M 3,11 3.471,11.242 4,11.268 4.287,11.713 4.732,12 4.758,12.529 5,13 4.758,13.471 4.732,14 4.287,14.287 4,14.732 3.471,14.758 3,15 2.529,14.758 2,14.732 1.713,14.287 1.268,14 1.242,13.471 1,13 1.242,12.529 1.268,12 1.713,11.713 2,11.268 2.529,11.242 Z"
         id="path4523" /></g></g></svg>
