<svg id="hopeful" xmlns="http://www.w3.org/2000/svg" viewBox="0 0 144 144"><defs><style>.cls-1{fill:#25c252;}</style></defs><title>hopeful_icon_01</title><path class="cls-1" d="M136.1,80a11.1,11.1,0,0,0-6-9.8,11.2,11.2,0,0,0,4.5-9,11,11,0,0,0-11-11H97.8A11.8,11.8,0,0,0,91.7,52a44,44,0,0,0,1.6-19.5c-1.1-7.3-3.5-12.1-7.1-14.3a9.1,9.1,0,0,0-7.9-.8c-6.1,2-6.5,8.2-6.8,13.3v1.1c-.3,4.4-.5,8.6-4.6,15.5S49.6,61.5,47.2,62.7H41.3V61.2a2,2,0,0,0-2-2H9.9a2,2,0,0,0-2,2v57a1.9,1.9,0,0,0,2,2H39.3a1.9,1.9,0,0,0,2-2v-3.1h3.3c8.4,11,21.9,12.1,26.6,12.1H91.5a2.2,2.2,0,0,0,1.4-.5,12.7,12.7,0,0,0,3.4.5h15.5a10.5,10.5,0,0,0,10.5-10.5,10.6,10.6,0,0,0-2.5-6.7,11.2,11.2,0,0,0,9.1-11,11,11,0,0,0-3.2-7.8A11.1,11.1,0,0,0,136.1,80ZM89.5,68.5a10.7,10.7,0,0,0,2.3,2,12.2,12.2,0,0,0-3.3,3.1A38.4,38.4,0,0,0,89.5,68.5Zm8.3-14.3h25.8a7.1,7.1,0,0,1,0,14.1H97.8a7.1,7.1,0,0,1,0-14.1Zm-60.5,62H11.9v-53H37.3Zm35.5,6.9h-.2c-.2,0-16.7,1.1-25.3-11.1a2,2,0,0,0-1.7-.9H41.3V66.7h6.3l.9-.2c.7-.3,16.4-7.9,21.9-17.1A34.3,34.3,0,0,0,75.5,32V30.9c.4-5.3.8-8.6,4.1-9.7a5.1,5.1,0,0,1,4.5.4c2.5,1.5,4.4,5.6,5.3,11.5a42.2,42.2,0,0,1-3.1,22,8.7,8.7,0,0,0-.2,2.8c.1,6.7.5,27.2-17.5,32.7a2,2,0,0,0-1.4,2.5,2.1,2.1,0,0,0,1.9,1.4h.6A26.2,26.2,0,0,0,86.5,79.7V80a10.8,10.8,0,0,0,5,9.2,11.2,11.2,0,0,0-5.6,9.7,11,11,0,0,0,4.6,9A10.6,10.6,0,0,0,88,123.1Zm39,0H96.3a6.5,6.5,0,1,1,0-13h15.5a6.5,6.5,0,0,1,0,13Zm6-17H97a7.2,7.2,0,0,1,0-14.4h20.8a7.2,7.2,0,0,1,0,14.4Zm7.3-19H97.5A7.1,7.1,0,0,1,90.4,80a7,7,0,0,1,7.1-7h27.6a7,7,0,0,1,7,7A7.1,7.1,0,0,1,125.1,87.1Z"/></svg>