<?xml version="1.0" encoding="UTF-8" standalone="no"?>
<svg
   width="16"
   height="16"
   fill="currentColor"
   class="bi bi-arrow-up-circle-fill"
   viewBox="0 0 16 16"
   version="1.1"
   id="svg1"
   sodipodi:docname="arrow-up-circle-blue.svg"
   inkscape:version="1.4 (e7c3feb1, 2024-10-09)"
   xmlns:inkscape="http://www.inkscape.org/namespaces/inkscape"
   xmlns:sodipodi="http://sodipodi.sourceforge.net/DTD/sodipodi-0.dtd"
   xmlns="http://www.w3.org/2000/svg"
   xmlns:svg="http://www.w3.org/2000/svg">
  <defs
     id="defs1" />
  <sodipodi:namedview
     id="namedview1"
     pagecolor="#ffffff"
     bordercolor="#000000"
     borderopacity="0.25"
     inkscape:showpageshadow="2"
     inkscape:pageopacity="0.0"
     inkscape:pagecheckerboard="0"
     inkscape:deskcolor="#d1d1d1"
     inkscape:zoom="10.194025"
     inkscape:cx="2.4033687"
     inkscape:cy="19.226949"
     inkscape:window-width="1280"
     inkscape:window-height="771"
     inkscape:window-x="0"
     inkscape:window-y="33"
     inkscape:window-maximized="1"
     inkscape:current-layer="svg1" />
  <path
     d="M 16,8.0000003 C 16,3.5817188 12.418278,2.75e-6 7.9999998,2.75e-6 3.5817218,2.75e-6 2e-7,3.5817188 2e-7,8.0000003 2e-7,12.418281 3.5817218,15.999997 7.9999998,15.999997 12.418278,15.999997 16,12.418281 16,8.0000003"
     id="path1-8"
     style="fill:#ffffff;fill-opacity:1"
     sodipodi:nodetypes="csssc" />
  <path
     d="M16 8A8 8 0 1 0 0 8a8 8 0 0 0 16 0m-7.5 3.5a.5.5 0 0 1-1 0V5.707L5.354 7.854a.5.5 0 1 1-.708-.708l3-3a.5.5 0 0 1 .708 0l3 3a.5.5 0 0 1-.708.708L8.5 5.707z"
     id="path1"
     style="fill:#00a0cc;fill-opacity:1" />
</svg>
