<?xml version="1.0" encoding="UTF-8" standalone="no"?>
<svg
   width="16"
   height="16"
   fill="currentColor"
   class="bi bi-exclamation-triangle"
   viewBox="0 0 16 16"
   version="1.1"
   id="svg6"
   sodipodi:docname="exclamation-triangle.svg"
   inkscape:version="1.2.1 (9c6d41e, 2022-07-14)"
   xmlns:inkscape="http://www.inkscape.org/namespaces/inkscape"
   xmlns:sodipodi="http://sodipodi.sourceforge.net/DTD/sodipodi-0.dtd"
   xmlns="http://www.w3.org/2000/svg"
   xmlns:svg="http://www.w3.org/2000/svg">
  <defs
     id="defs10" />
  <sodipodi:namedview
     id="namedview8"
     pagecolor="#ffffff"
     bordercolor="#000000"
     borderopacity="0.25"
     inkscape:showpageshadow="2"
     inkscape:pageopacity="0.0"
     inkscape:pagecheckerboard="0"
     inkscape:deskcolor="#d1d1d1"
     showgrid="false"
     inkscape:zoom="14.75"
     inkscape:cx="6.779661"
     inkscape:cy="13.152542"
     inkscape:window-width="1280"
     inkscape:window-height="456"
     inkscape:window-x="0"
     inkscape:window-y="33"
     inkscape:window-maximized="0"
     inkscape:current-layer="svg6" />
  <path
     d="M7.938 2.016A.13.13 0 0 1 8.002 2a.13.13 0 0 1 .063.016.15.15 0 0 1 .054.057l6.857 11.667c.036.06.035.124.002.183a.2.2 0 0 1-.054.06.1.1 0 0 1-.066.017H1.146a.1.1 0 0 1-.066-.017.2.2 0 0 1-.054-.06.18.18 0 0 1 .002-.183L7.884 2.073a.15.15 0 0 1 .054-.057m1.044-.45a1.13 1.13 0 0 0-1.96 0L.165 13.233c-.457.778.091 1.767.98 1.767h13.713c.889 0 1.438-.99.98-1.767z"
     id="path2"
     style="fill:#ffffff;fill-opacity:1" />
  <path
     d="M7.002 12a1 1 0 1 1 2 0 1 1 0 0 1-2 0M7.1 5.995a.905.905 0 1 1 1.8 0l-.35 3.507a.552.552 0 0 1-1.1 0z"
     id="path4"
     style="fill:#ffffff;fill-opacity:1" />
</svg>
