<?xml version="1.0" encoding="UTF-8" standalone="no"?>
<!-- Generator: Adobe Illustrator 21.1.0, SVG Export Plug-In . SVG Version: 6.00 Build 0)  -->

<svg
   version="1.1"
   id="Layer_1"
   x="0px"
   y="0px"
   viewBox="0 0 557.32776 94.093399"
   xml:space="preserve"
   sodipodi:docname="BikeSpace_horz_wordmark_nofont.svg"
   inkscape:version="1.2.1 (9c6d41e, 2022-07-14)"
   width="557.32776"
   height="94.093399"
   xmlns:inkscape="http://www.inkscape.org/namespaces/inkscape"
   xmlns:sodipodi="http://sodipodi.sourceforge.net/DTD/sodipodi-0.dtd"
   xmlns="http://www.w3.org/2000/svg"
   xmlns:svg="http://www.w3.org/2000/svg"><defs
   id="defs3929" /><sodipodi:namedview
   id="namedview3927"
   pagecolor="#ffffff"
   bordercolor="#000000"
   borderopacity="0.25"
   inkscape:showpageshadow="2"
   inkscape:pageopacity="0.0"
   inkscape:pagecheckerboard="0"
   inkscape:deskcolor="#d1d1d1"
   showgrid="false"
   inkscape:zoom="1.8990367"
   inkscape:cx="261.44834"
   inkscape:cy="69.772216"
   inkscape:window-width="1280"
   inkscape:window-height="771"
   inkscape:window-x="0"
   inkscape:window-y="33"
   inkscape:window-maximized="1"
   inkscape:current-layer="text3924" />
<path
   fill="#25c252"
   d="m 91.9,22.403925 c -6.9,0 -13.3,2.6 -18.2,7.5 0,0 0,0 0,0 v 0 l -32.7,33.9 -0.1,0.1 c -4,4 -9.2,6.2 -14.8,6.2 -11.5,0 -20.9,-9.5 -20.9,-21.2 0,-11.7 9.4,-21.2 20.9,-21.2 9.6,0 17.9,6.7 20.3,15.9 l 4.1,-4.3 c -3.8,-9.9 -13.4,-16.9 -24.4,-16.9 -14.4,0 -26.1,11.8 -26.1,26.4 0,14.6 11.7,26.4 26.1,26.4 6.8,0 13.3,-2.6 18.2,-7.5 v 0 0 l 32.6,-33.8 v 0 0 l 0.1,-0.1 c 4,-4 9.2,-6.2 14.8,-6.2 11.5,0 20.9,9.5 20.9,21.2 0,11.7 -9.4,21.2 -20.9,21.2 -9.6,0 -17.9,-6.7 -20.3,-15.9 l -4.1,4.3 c 3.8,9.9 13.4,16.8 24.4,16.8 14.4,0 26.1,-11.8 26.1,-26.4 0.2,-14.5 -11.6,-26.4 -26,-26.4"
   id="path3920" />
<polygon
   fill="#25c252"
   points="83.7,242.8 97.9,242.8 97.9,248 87.1,248 68.4,290.6 63.6,288.4 "
   id="polygon3922"
   transform="translate(-39.9,-240.09608)" />
<g
   aria-label="BikeSpace"
   id="text3924"
   style="font-size:94.7567px;font-family:FiraSans-Regular;fill:#25c252"><path
     d="m 163.33031,39.418787 q 6.72772,1.13708 10.89702,4.737835 4.16929,3.600754 4.16929,11.18129 0,18.572313 -25.86858,18.572313 H 134.52427 V 8.6228596 h 15.44534 q 12.41313,0 18.95134,4.0745384 6.63297,4.074538 6.63297,12.413127 0,5.685402 -3.60075,9.47567 -3.506,3.790268 -8.62286,4.832592 z M 143.52616,15.729612 v 20.562204 h 9.85469 q 5.6854,0 9.28616,-2.747945 3.69551,-2.747944 3.69551,-7.770049 0,-5.685402 -3.88502,-7.864806 -3.79027,-2.179404 -11.56032,-2.179404 z m 9.00188,50.979104 q 7.95956,0 12.12886,-2.368918 4.26405,-2.368917 4.26405,-9.001886 0,-6.443456 -4.07454,-9.286156 -4.07454,-2.842701 -10.61275,-2.842701 h -10.7075 v 23.499661 z"
     style="font-family:'Fira Sans';-inkscape-font-specification:'Fira Sans'"
     id="path4079" /><path
     d="m 200.38015,23.973445 v 49.93678 h -8.71761 V 23.973445 Z M 195.92659,0 q 2.74794,0 4.45356,1.7056206 1.70563,1.7056205 1.70563,4.2640514 0,2.5584309 -1.70563,4.264051 -1.70562,1.610864 -4.45356,1.610864 -2.65319,0 -4.35881,-1.610864 -1.70562,-1.7056201 -1.70562,-4.264051 0,-2.5584309 1.70562,-4.2640514 Q 193.2734,0 195.92659,0 Z"
     style="font-family:'Fira Sans';-inkscape-font-specification:'Fira Sans'"
     id="path4081" /><path
     d="m 227.10151,2.842701 v 71.067524 h -8.71762 V 3.8850246 Z m 28.71128,21.130744 -18.3828,22.078311 20.46744,27.858469 H 247.4742 l -19.80415,-27.289929 18.3828,-22.646851 z"
     style="font-family:'Fira Sans';-inkscape-font-specification:'Fira Sans'"
     id="path4083" /><path
     d="m 303.75952,47.473106 q 0,2.179404 -0.18952,4.453565 h -31.83825 q 0.56854,8.243833 4.1693,12.128857 3.60075,3.885025 9.28615,3.885025 3.60076,0 6.63297,-1.042324 3.03222,-1.042323 6.3487,-3.316484 l 3.79027,5.211618 q -7.95956,6.253942 -17.43523,6.253942 -10.42324,0 -16.29816,-6.822482 -5.78015,-6.822482 -5.78015,-18.761826 0,-7.77005 2.46367,-13.739722 2.55843,-6.064428 7.20151,-9.475669 4.73783,-3.411242 11.08653,-3.411242 9.94946,0 15.25583,6.538213 5.30638,6.538212 5.30638,18.098529 z m -8.62286,-2.558431 q 0,-7.391022 -2.93746,-11.276047 -2.93746,-3.885025 -8.81237,-3.885025 -10.70751,0 -11.65508,15.729612 h 23.40491 z"
     style="font-family:'Fira Sans';-inkscape-font-specification:'Fira Sans'"
     id="path4085" /><path
     d="m 334.271,7.4857792 q 6.53821,0 11.18129,1.895134 4.64308,1.8003768 9.00189,5.6854018 l -4.92735,5.495889 q -3.69551,-2.937458 -7.29627,-4.264052 -3.506,-1.42135 -7.58053,-1.42135 -5.11687,0 -8.43335,2.368917 -3.31648,2.368918 -3.31648,6.917239 0,2.842701 1.13708,4.832592 1.13708,1.895134 4.16929,3.505998 3.12697,1.610863 9.00189,3.411241 6.15918,1.895134 10.23372,4.074538 4.07454,2.179404 6.53821,6.064429 2.55843,3.790267 2.55843,9.665183 0,5.685402 -2.8427,10.04421 -2.74794,4.358808 -8.05432,6.822482 -5.21161,2.463674 -12.41312,2.463674 -13.55021,0 -22.17307,-8.433346 l 4.92735,-5.495888 q 3.97978,3.221727 8.05432,4.927348 4.07453,1.610864 9.09664,1.610864 6.06443,0 10.04421,-2.937458 3.97978,-3.032214 3.97978,-8.717616 0,-3.221728 -1.23184,-5.306375 -1.23183,-2.179404 -4.26405,-3.885025 -2.93746,-1.70562 -8.62286,-3.411241 -10.04421,-3.032214 -14.68729,-7.296266 -4.64307,-4.264051 -4.64307,-11.560317 0,-4.927348 2.55843,-8.812373 2.65318,-3.885025 7.29626,-6.0644287 4.73784,-2.1794041 10.70751,-2.1794041 z"
     style="font-family:'Fira Sans';-inkscape-font-specification:'Fira Sans'"
     id="path4087" /><path
     d="m 392.26193,22.836364 q 9.57042,0 14.02399,6.822483 4.45356,6.822482 4.45356,19.235609 0,11.749831 -5.11686,18.95134 -5.11686,7.201509 -14.49777,7.201509 -8.33859,0 -13.07643,-5.685402 v 23.689175 l -8.71762,1.042324 V 23.973445 h 7.48578 l 0.6633,6.727725 q 2.74795,-3.790268 6.63297,-5.780158 3.88502,-2.084648 8.14908,-2.084648 z m -3.22173,45.104189 q 12.31837,0 12.31837,-19.046097 0,-19.140853 -11.27605,-19.140853 -3.69551,0 -6.72772,2.179404 -3.03222,2.179404 -5.30638,5.590646 v 24.352471 q 1.89514,2.937458 4.73784,4.548322 2.8427,1.516107 6.25394,1.516107 z"
     style="font-family:'Fira Sans';-inkscape-font-specification:'Fira Sans'"
     id="path4089" /><path
     d="m 458.30731,62.255151 q 0,3.032214 1.04232,4.548322 1.04233,1.42135 3.12697,2.179404 l -1.98989,6.064428 q -3.88502,-0.473783 -6.25394,-2.179404 -2.36892,-1.70562 -3.506,-5.306375 -5.0221,7.485779 -14.8768,7.485779 -7.39102,0 -11.65507,-4.169294 -4.26405,-4.169295 -4.26405,-10.897021 0,-7.959562 5.6854,-12.223614 5.78016,-4.264051 16.29815,-4.264051 h 7.67529 v -3.695512 q 0,-5.306375 -2.55843,-7.580535 -2.55843,-2.274161 -7.8648,-2.274161 -5.49589,0 -13.45546,2.653187 l -2.1794,-6.348698 q 9.28616,-3.411242 17.24572,-3.411242 8.81237,0 13.17118,4.358809 4.35881,4.264051 4.35881,12.223614 z m -20.46745,6.253942 q 7.48578,0 11.74983,-7.770049 V 49.273483 h -6.53821 q -13.83448,0 -13.83448,10.233724 0,4.453565 2.17941,6.727725 2.1794,2.274161 6.44345,2.274161 z"
     style="font-family:'Fira Sans';-inkscape-font-specification:'Fira Sans'"
     id="path4091" /><path
     d="m 494.40948,22.836364 q 4.45357,0 8.14908,1.326594 3.69551,1.231837 7.10675,4.074538 l -4.16929,5.495889 q -2.65319,-1.895134 -5.21162,-2.747945 -2.46368,-0.947567 -5.49589,-0.947567 -6.06443,0 -9.47567,4.832592 -3.31649,4.832592 -3.31649,14.308262 0,9.475669 3.31649,14.023991 3.31648,4.453565 9.47567,4.453565 2.93746,0 5.40113,-0.85281 2.46367,-0.947567 5.49589,-2.937458 l 3.97978,5.685402 q -6.82248,5.495888 -15.25583,5.495888 -10.13896,0 -16.01388,-6.822482 -5.78016,-6.822482 -5.78016,-18.856583 0,-7.959563 2.65319,-13.929235 2.65319,-5.969672 7.48578,-9.286156 4.92735,-3.316485 11.65507,-3.316485 z"
     style="font-family:'Fira Sans';-inkscape-font-specification:'Fira Sans'"
     id="path4093" /><path
     d="m 557.32777,47.473106 q 0,2.179404 -0.18951,4.453565 H 525.3 q 0.56855,8.243833 4.1693,12.128857 3.60075,3.885025 9.28616,3.885025 3.60075,0 6.63297,-1.042324 3.03221,-1.042323 6.34869,-3.316484 l 3.79027,5.211618 q -7.95956,6.253942 -17.43523,6.253942 -10.42324,0 -16.29815,-6.822482 -5.78016,-6.822482 -5.78016,-18.761826 0,-7.77005 2.46367,-13.739722 2.55843,-6.064428 7.20151,-9.475669 4.73784,-3.411242 11.08654,-3.411242 9.94945,0 15.25582,6.538213 5.30638,6.538212 5.30638,18.098529 z m -8.62286,-2.558431 q 0,-7.391022 -2.93746,-11.276047 -2.93746,-3.885025 -8.81237,-3.885025 -10.70751,0 -11.65508,15.729612 h 23.40491 z"
     style="font-family:'Fira Sans';-inkscape-font-specification:'Fira Sans'"
     id="path4095" /></g>
</svg>
