<?xml version="1.0" encoding="UTF-8" standalone="no"?>
<!-- Created with Inkscape (http://www.inkscape.org/) -->

<svg
   width="130"
   height="130"
   viewBox="0 0 32.5 32.5"
   version="1.1"
   id="svg1"
   inkscape:version="1.2.1 (9c6d41e, 2022-07-14)"
   sodipodi:docname="iconv4_not_provided.svg"
   xml:space="preserve"
   xmlns:inkscape="http://www.inkscape.org/namespaces/inkscape"
   xmlns:sodipodi="http://sodipodi.sourceforge.net/DTD/sodipodi-0.dtd"
   xmlns="http://www.w3.org/2000/svg"
   xmlns:svg="http://www.w3.org/2000/svg"><sodipodi:namedview
     id="namedview1"
     pagecolor="#ffffff"
     bordercolor="#000000"
     borderopacity="0.25"
     inkscape:showpageshadow="2"
     inkscape:pageopacity="0.0"
     inkscape:pagecheckerboard="false"
     inkscape:deskcolor="#d1d1d1"
     inkscape:document-units="mm"
     labelstyle="below"
     inkscape:zoom="4.0970529"
     inkscape:cx="56.381991"
     inkscape:cy="66.267145"
     inkscape:window-width="1280"
     inkscape:window-height="771"
     inkscape:window-x="0"
     inkscape:window-y="33"
     inkscape:window-maximized="0"
     inkscape:current-layer="layer1"
     showgrid="false" /><defs
     id="defs1"><rect
       x="44.666252"
       y="28.557112"
       width="42.957706"
       height="46.130718"
       id="rect1" /></defs><g
     inkscape:label="Layer 1"
     inkscape:groupmode="layer"
     id="layer1"><path
       id="bubble"
       style="display:inline;fill:#d6eef5;fill-opacity:1;stroke:#00a0cc;stroke-width:2.5;stroke-linejoin:round;stroke-dasharray:none;stroke-opacity:1"
       d="M 16.25,1.3554218 A 12.081856,12.081856 0 0 0 4.1679689,13.436963 12.081856,12.081856 0 0 0 14.575195,25.398877 c 0.388898,1.340502 0.8987,5.694336 1.674805,5.694336 0.776105,0 1.285907,-4.353834 1.674805,-5.694336 A 12.081856,12.081856 0 0 0 28.332031,13.436963 12.081856,12.081856 0 0 0 16.25,1.3554218 Z"
       inkscape:label="bubble"
       class="icon-shape" /><path
       d="m 21.092362,6.0889012 2.449195,2.4011713 -4.882382,4.8823805 4.818351,4.850366 -2.385164,2.433187 -4.882381,-4.81835 L 11.39163,20.62399 8.9904589,18.190804 13.744778,13.372453 8.9584433,8.5541038 11.39163,6.0889012 16.209981,10.875235 Z"
       id="text1"
       style="font-weight:bold;font-size:33.3333px;font-family:'Open Sans';-inkscape-font-specification:'Open Sans Bold';text-align:center;text-anchor:middle;fill:#000000;fill-opacity:1;stroke-width:1.47528;stroke-linecap:round;stroke-linejoin:round"
       class="icon-content"
       aria-label="×" /></g></svg>
