<?xml version="1.0" encoding="UTF-8" standalone="no"?>
<!-- Created with Inkscape (http://www.inkscape.org/) -->

<svg
   width="130"
   height="130"
   viewBox="0 0 32.5 32.5"
   version="1.1"
   id="svg1"
   inkscape:version="1.2.1 (9c6d41e, 2022-07-14)"
   sodipodi:docname="iconv4_full.svg"
   xml:space="preserve"
   xmlns:inkscape="http://www.inkscape.org/namespaces/inkscape"
   xmlns:sodipodi="http://sodipodi.sourceforge.net/DTD/sodipodi-0.dtd"
   xmlns="http://www.w3.org/2000/svg"
   xmlns:svg="http://www.w3.org/2000/svg"><sodipodi:namedview
     id="namedview1"
     pagecolor="#ffffff"
     bordercolor="#000000"
     borderopacity="0.25"
     inkscape:showpageshadow="2"
     inkscape:pageopacity="0.0"
     inkscape:pagecheckerboard="false"
     inkscape:deskcolor="#d1d1d1"
     inkscape:document-units="mm"
     labelstyle="below"
     inkscape:zoom="4.0970529"
     inkscape:cx="116.66923"
     inkscape:cy="47.473148"
     inkscape:window-width="1280"
     inkscape:window-height="771"
     inkscape:window-x="0"
     inkscape:window-y="33"
     inkscape:window-maximized="0"
     inkscape:current-layer="layer1"
     showgrid="false" /><defs
     id="defs1"><rect
       x="44.666252"
       y="28.557112"
       width="42.957706"
       height="46.130718"
       id="rect1" /></defs><g
     inkscape:label="Layer 1"
     inkscape:groupmode="layer"
     id="layer1"><path
       id="bubble"
       style="display:inline;fill:#f5ead6;fill-opacity:1;stroke:#ffa100;stroke-width:2.5;stroke-linejoin:round;stroke-dasharray:none;stroke-opacity:1"
       d="M 16.25,1.3554218 A 12.081856,12.081856 0 0 0 4.1679689,13.436963 12.081856,12.081856 0 0 0 14.575195,25.398877 c 0.388898,1.340502 0.8987,5.694336 1.674805,5.694336 0.776105,0 1.285907,-4.353834 1.674805,-5.694336 A 12.081856,12.081856 0 0 0 28.332031,13.436963 12.081856,12.081856 0 0 0 16.25,1.3554218 Z"
       inkscape:label="bubble"
       class="icon-shape" /><g
       aria-label="full"
       id="text1"
       style="font-weight:bold;font-size:8px;font-family:'Open Sans';-inkscape-font-specification:'Open Sans Bold';text-align:center;text-anchor:middle;fill:#000000;stroke-width:1.5;stroke-linecap:round;stroke-linejoin:round"
       transform="matrix(1.1706775,0,0,1.1706775,-2.5992645,-7.8711905)"><path
         id="path2436"
         d="m 22.841797,20.74662 h -1.40625 v -6.078125 h 1.40625 z m -2.734375,0 h -1.40625 v -6.078125 h 1.40625 z m -2.734375,0 h -1.40625 v -0.484375 q -0.390625,0.296875 -0.714844,0.453125 -0.324219,0.152344 -0.773437,0.152344 -0.726563,0 -1.121094,-0.417969 -0.390625,-0.417969 -0.390625,-1.234375 v -2.855469 h 1.414062 v 2.175782 q 0,0.332031 0.01953,0.554687 0.02344,0.21875 0.101562,0.363281 0.07422,0.144532 0.222656,0.210938 0.152344,0.06641 0.421875,0.06641 0.179688,0 0.398438,-0.06641 0.21875,-0.06641 0.421875,-0.195313 v -3.109375 h 1.40625 z m -4.90625,-5.046875 h -0.105469 q -0.09375,-0.02734 -0.246094,-0.0625 -0.148437,-0.03516 -0.320312,-0.03516 -0.414063,0 -0.5625,0.148437 -0.144531,0.148438 -0.144531,0.574219 v 0.03516 h 1.085937 v 0.953125 H 11.134766 V 20.74662 H 9.7285156 V 17.313026 H 9.1269531 v -0.953125 h 0.6015625 v -0.121093 q 0,-0.804688 0.4257814,-1.207032 0.429687,-0.402343 1.296875,-0.402343 0.3125,0 0.566406,0.02344 0.253906,0.01953 0.449219,0.05469 z"
         style="fill:#000000" /></g></g></svg>
