<svg width="15" height="12" viewBox="0 0 15 12" fill="none" xmlns="http://www.w3.org/2000/svg">
<path d="M14.4966 2.04631C14.6932 1.82144 14.8406 1.5516 14.8406 1.23678C14.8406 0.539687 14.2263 -8.57809e-08 13.4892 -8.57809e-08C12.9978 -8.57809e-08 12.5555 0.247357 12.3098 0.629635L5.97063 8.72494L2.3342 5.46433C2.3342 5.44184 2.30963 5.44184 2.28506 5.41935C2.03935 5.21697 1.71993 5.08205 1.35138 5.08205C0.589691 5.08205 -7.49832e-07 5.64422 -7.49832e-07 6.31883C-7.49832e-07 6.63365 0.122852 6.90349 0.319416 7.12836C0.393128 7.19582 0.46684 7.26328 0.540551 7.33075L4.93867 11.131C5.23352 11.4009 5.5775 11.7157 6.09348 11.7157C6.60946 11.7157 6.90431 11.5358 7.27287 11.0861L14.4966 2.04631Z" fill="white"/>
</svg>
