<svg width="147" height="33" viewBox="0 0 147 33" fill="none" xmlns="http://www.w3.org/2000/svg">
<path d="M12.7906 23.737C9.86457 26.6712 5.12057 26.6712 2.19451 23.737C-0.731503 20.8028 -0.731503 16.0456 2.19451 13.1114C5.12057 10.1773 9.86457 10.1773 12.7906 13.1114C13.5111 13.834 14.0542 14.667 14.4199 15.5562L13.2458 16.7335C12.9729 15.7965 12.4679 14.913 11.731 14.174C9.39021 11.8267 5.59494 11.8267 3.25414 14.174C0.913307 16.5213 0.913307 20.3271 3.25414 22.6745C5.59494 25.0218 9.39021 25.0218 11.731 22.6745L12.7906 23.737Z" fill="#31C057"/>
<path d="M21.2094 13.1738L22.269 14.2364C24.6098 11.889 28.405 11.889 30.7458 14.2364C33.0867 16.5837 33.0867 20.3895 30.7458 22.7368C28.405 25.0842 24.6098 25.0842 22.269 22.7368C21.532 21.9979 21.0271 21.1143 20.7542 20.1773L19.5801 21.3546C19.9458 22.2438 20.4888 23.0769 21.2094 23.7994C24.1354 26.7335 28.8794 26.7335 31.8055 23.7994C34.7315 20.8652 34.7315 16.108 31.8055 13.1738C28.8794 10.2396 24.1354 10.2396 21.2094 13.1738Z" fill="#31C057"/>
<path d="M11.6951 22.9742C11.6219 22.9009 11.6219 22.782 11.6951 22.7086L21.1881 13.1892C21.2612 13.1158 21.3798 13.1158 21.453 13.1892L22.2476 13.986C22.3207 14.0594 22.3207 14.1783 22.2476 14.2516L12.7546 23.771C12.6814 23.8444 12.5628 23.8444 12.4896 23.771L11.6951 22.9742Z" fill="#31C057"/>
<path d="M12.5683 5L13.9389 5.60763L8.18241 18.664L6.81187 18.0564L12.5683 5Z" fill="#31C057"/>
<path d="M12.6309 5H16.7518V6.50268H12.6309V5Z" fill="#31C057"/>
<path d="M39.5741 8.86719H44.4139C46.6873 8.86719 48.3319 9.20703 49.3475 9.88672C50.3631 10.5664 50.8709 11.6406 50.8709 13.1094C50.8709 14.125 50.5858 14.9648 50.0155 15.6289C49.453 16.2852 48.6288 16.7109 47.5428 16.9062V17.0234C50.1444 17.4688 51.4452 18.8359 51.4452 21.125C51.4452 22.6562 50.9256 23.8516 49.8866 24.7109C48.8553 25.5703 47.41 26 45.5506 26H39.5741V8.86719ZM41.5662 16.2031H44.8475C46.2537 16.2031 47.2655 15.9844 47.8827 15.5469C48.4998 15.1016 48.8084 14.3555 48.8084 13.3086C48.8084 12.3477 48.4647 11.6562 47.7772 11.2344C47.0897 10.8047 45.9959 10.5898 44.4959 10.5898H41.5662V16.2031ZM41.5662 17.8906V24.3008H45.1405C46.5233 24.3008 47.5623 24.0352 48.2577 23.5039C48.9608 22.9648 49.3123 22.125 49.3123 20.9844C49.3123 19.9219 48.953 19.1406 48.2342 18.6406C47.5233 18.1406 46.4373 17.8906 44.9764 17.8906H41.5662ZM56.3089 26H54.3636V13.1562H56.3089V26ZM54.1995 9.67578C54.1995 9.23047 54.3089 8.90625 54.5277 8.70312C54.7464 8.49219 55.0198 8.38672 55.348 8.38672C55.6605 8.38672 55.93 8.49219 56.1566 8.70312C56.3831 8.91406 56.4964 9.23828 56.4964 9.67578C56.4964 10.1133 56.3831 10.4414 56.1566 10.6602C55.93 10.8711 55.6605 10.9766 55.348 10.9766C55.0198 10.9766 54.7464 10.8711 54.5277 10.6602C54.3089 10.4414 54.1995 10.1133 54.1995 9.67578ZM61.8758 19.4258C62.2117 18.9492 62.7234 18.3242 63.4109 17.5508L67.5594 13.1562H69.868L64.6648 18.6289L70.2313 26H67.8758L63.3406 19.9297L61.8758 21.1953V26H59.9539V7.76562H61.8758V17.4336C61.8758 17.8633 61.8445 18.5273 61.782 19.4258H61.8758ZM77.5091 26.2344C75.6106 26.2344 74.1106 25.6562 73.0091 24.5C71.9153 23.3437 71.3684 21.7383 71.3684 19.6836C71.3684 17.6133 71.8763 15.9688 72.8919 14.75C73.9153 13.5312 75.2864 12.9219 77.0052 12.9219C78.6145 12.9219 79.888 13.4531 80.8255 14.5156C81.763 15.5703 82.2317 16.9648 82.2317 18.6992V19.9297H73.3841C73.4231 21.4375 73.802 22.582 74.5208 23.3633C75.2473 24.1445 76.2669 24.5352 77.5794 24.5352C78.9622 24.5352 80.3294 24.2461 81.6809 23.668V25.4023C80.9934 25.6992 80.3411 25.9102 79.7239 26.0352C79.1145 26.168 78.3763 26.2344 77.5091 26.2344ZM76.9817 14.5508C75.9505 14.5508 75.1263 14.8867 74.5091 15.5586C73.8997 16.2305 73.5403 17.1602 73.4309 18.3477H80.1458C80.1458 17.1211 79.8723 16.1836 79.3255 15.5352C78.7786 14.8789 77.9973 14.5508 76.9817 14.5508ZM95.0408 21.4414C95.0408 22.9492 94.4939 24.125 93.4002 24.9688C92.3064 25.8125 90.822 26.2344 88.947 26.2344C86.9158 26.2344 85.3533 25.9727 84.2595 25.4492V23.5273C84.9627 23.8242 85.7283 24.0586 86.5564 24.2305C87.3845 24.4023 88.2048 24.4883 89.0173 24.4883C90.3455 24.4883 91.3455 24.2383 92.0173 23.7383C92.6892 23.2305 93.0252 22.5273 93.0252 21.6289C93.0252 21.0352 92.9041 20.5508 92.6619 20.1758C92.4275 19.793 92.0291 19.4414 91.4666 19.1211C90.9119 18.8008 90.0642 18.4375 88.9236 18.0312C87.3298 17.4609 86.1892 16.7852 85.5017 16.0039C84.822 15.2227 84.4822 14.2031 84.4822 12.9453C84.4822 11.625 84.9783 10.5742 85.9705 9.79297C86.9627 9.01172 88.2752 8.62109 89.908 8.62109C91.6111 8.62109 93.1775 8.93359 94.6072 9.55859L93.9861 11.293C92.572 10.6992 91.197 10.4023 89.8611 10.4023C88.8064 10.4023 87.9822 10.6289 87.3884 11.082C86.7947 11.5352 86.4978 12.1641 86.4978 12.9688C86.4978 13.5625 86.6072 14.0508 86.8259 14.4336C87.0447 14.8086 87.4119 15.1563 87.9275 15.4766C88.4509 15.7891 89.2478 16.1367 90.3181 16.5195C92.115 17.1602 93.3494 17.8477 94.0213 18.582C94.7009 19.3164 95.0408 20.2695 95.0408 21.4414ZM103.748 26.2344C102.912 26.2344 102.147 26.082 101.451 25.7773C100.764 25.4648 100.186 24.9883 99.717 24.3477H99.5764C99.6702 25.0977 99.717 25.8086 99.717 26.4805V31.7656H97.7717V13.1562H99.3538L99.6233 14.9141H99.717C100.217 14.2109 100.799 13.7031 101.463 13.3906C102.127 13.0781 102.889 12.9219 103.748 12.9219C105.451 12.9219 106.764 13.5039 107.686 14.668C108.615 15.832 109.08 17.4648 109.08 19.5664C109.08 21.6758 108.608 23.3164 107.662 24.4883C106.725 25.6523 105.42 26.2344 103.748 26.2344ZM103.467 14.5742C102.155 14.5742 101.205 14.9375 100.619 15.6641C100.033 16.3906 99.7327 17.5469 99.717 19.1328V19.5664C99.717 21.3711 100.018 22.6641 100.619 23.4453C101.221 24.2188 102.186 24.6055 103.514 24.6055C104.623 24.6055 105.49 24.1563 106.115 23.2578C106.748 22.3594 107.065 21.1211 107.065 19.543C107.065 17.9414 106.748 16.7148 106.115 15.8633C105.49 15.0039 104.608 14.5742 103.467 14.5742ZM119.909 26L119.522 24.1719H119.428C118.788 24.9766 118.147 25.5234 117.507 25.8125C116.874 26.0938 116.081 26.2344 115.128 26.2344C113.854 26.2344 112.854 25.9062 112.128 25.25C111.409 24.5938 111.05 23.6602 111.05 22.4492C111.05 19.8555 113.124 18.4961 117.272 18.3711L119.452 18.3008V17.5039C119.452 16.4961 119.233 15.7539 118.796 15.2773C118.366 14.793 117.675 14.5508 116.721 14.5508C115.651 14.5508 114.44 14.8789 113.089 15.5352L112.491 14.0469C113.124 13.7031 113.815 13.4336 114.565 13.2383C115.323 13.043 116.081 12.9453 116.839 12.9453C118.37 12.9453 119.503 13.2852 120.237 13.9648C120.979 14.6445 121.35 15.7344 121.35 17.2344V26H119.909ZM115.514 24.6289C116.725 24.6289 117.675 24.2969 118.362 23.6328C119.057 22.9688 119.405 22.0391 119.405 20.8438V19.6836L117.46 19.7656C115.913 19.8203 114.796 20.0625 114.108 20.4922C113.428 20.9141 113.089 21.5742 113.089 22.4727C113.089 23.1758 113.3 23.7109 113.721 24.0781C114.151 24.4453 114.749 24.6289 115.514 24.6289ZM130.023 26.2344C128.163 26.2344 126.722 25.6641 125.698 24.5234C124.683 23.375 124.175 21.7539 124.175 19.6602C124.175 17.5117 124.691 15.8516 125.722 14.6797C126.761 13.5078 128.238 12.9219 130.152 12.9219C130.769 12.9219 131.386 12.9883 132.003 13.1211C132.62 13.2539 133.105 13.4102 133.456 13.5898L132.859 15.2422C132.429 15.0703 131.96 14.9297 131.452 14.8203C130.945 14.7031 130.495 14.6445 130.105 14.6445C127.495 14.6445 126.191 16.3086 126.191 19.6367C126.191 21.2148 126.507 22.4258 127.14 23.2695C127.78 24.1133 128.726 24.5352 129.976 24.5352C131.046 24.5352 132.144 24.3047 133.269 23.8438V25.5664C132.409 26.0117 131.327 26.2344 130.023 26.2344ZM141.273 26.2344C139.375 26.2344 137.875 25.6562 136.773 24.5C135.679 23.3437 135.133 21.7383 135.133 19.6836C135.133 17.6133 135.64 15.9688 136.656 14.75C137.679 13.5312 139.05 12.9219 140.769 12.9219C142.379 12.9219 143.652 13.4531 144.59 14.5156C145.527 15.5703 145.996 16.9648 145.996 18.6992V19.9297H137.148C137.187 21.4375 137.566 22.582 138.285 23.3633C139.011 24.1445 140.031 24.5352 141.343 24.5352C142.726 24.5352 144.093 24.2461 145.445 23.668V25.4023C144.758 25.6992 144.105 25.9102 143.488 26.0352C142.879 26.168 142.14 26.2344 141.273 26.2344ZM140.746 14.5508C139.715 14.5508 138.89 14.8867 138.273 15.5586C137.664 16.2305 137.304 17.1602 137.195 18.3477H143.91C143.91 17.1211 143.636 16.1836 143.09 15.5352C142.543 14.8789 141.761 14.5508 140.746 14.5508Z" fill="#31C057"/>
</svg>
