<?xml version="1.0" encoding="UTF-8" standalone="no"?>
<!DOCTYPE svg PUBLIC "-//W3C//DTD SVG 1.1//EN" "http://www.w3.org/Graphics/SVG/1.1/DTD/svg11.dtd">
<svg width="100%" height="100%" viewBox="0 0 156 100" version="1.1" xmlns="http://www.w3.org/2000/svg" xmlns:xlink="http://www.w3.org/1999/xlink" xml:space="preserve" xmlns:serif="http://www.serif.com/" style="fill-rule:evenodd;clip-rule:evenodd;">
    <g transform="matrix(1,0,0,1,0,-28.9536)">
        <path d="M42.25,104.254C47.927,104.254 53.445,104.904 58.806,106.204C64.166,107.504 69.481,109.627 74.75,112.574L74.75,48.802C70.057,45.453 64.887,42.939 59.241,41.262C53.586,39.59 47.922,38.753 42.25,38.753C37.934,38.753 33.811,39.111 29.881,39.826C25.95,40.541 22.49,41.741 19.5,43.427L19.5,108.401C22.542,107.101 26.119,106.082 30.232,105.346C34.344,104.609 38.35,104.247 42.25,104.26M81.25,112.58C86.519,109.642 91.834,107.519 97.195,106.21C102.555,104.902 108.073,104.252 113.75,104.26C117.65,104.26 121.656,104.626 125.769,105.359C129.881,106.091 133.458,107.107 136.5,108.407L136.5,43.427C133.51,41.741 130.05,40.541 126.119,39.826C122.189,39.111 118.066,38.753 113.75,38.753C108.073,38.753 102.412,39.59 96.766,41.262C91.115,42.939 85.943,45.453 81.25,48.802L81.25,112.58ZM78,122.005C72.713,118.391 67.037,115.614 60.97,113.672C54.903,111.731 48.663,110.76 42.25,110.76C36.924,110.76 31.681,111.508 26.52,113.003C21.363,114.506 16.857,116.491 13,118.957L13,39.455C16.683,37.202 21.103,35.438 26.26,34.164C31.412,32.882 36.742,32.24 42.25,32.24C48.62,32.24 54.83,33.157 60.879,34.99C66.937,36.827 72.644,39.494 78,42.991C83.36,39.494 89.067,36.829 95.121,34.996C101.175,33.163 107.384,32.247 113.75,32.247C119.258,32.247 124.568,32.884 129.682,34.158C134.795,35.432 139.234,37.195 143,39.449L143,118.95C139.165,116.48 134.663,114.498 129.493,113.003C124.323,111.499 119.076,110.747 113.75,110.747C107.337,110.747 101.097,111.718 95.03,113.659C88.963,115.601 83.287,118.383 78,122.005ZM90.253,62.355L90.253,56.31C93.741,54.542 97.478,53.216 101.465,52.332C105.452,51.448 109.547,51.006 113.75,51.006C116.151,51.006 118.456,51.16 120.666,51.467C122.872,51.779 125.151,52.217 127.504,52.78L127.504,58.682C125.233,57.959 123.023,57.456 120.874,57.174C118.716,56.897 116.341,56.758 113.75,56.758C109.547,56.758 105.447,57.231 101.452,58.175C97.448,59.12 93.713,60.513 90.246,62.355M90.246,97.858L90.246,91.553C93.574,89.789 97.294,88.465 101.407,87.581C105.519,86.697 109.633,86.255 113.75,86.255C116.151,86.255 118.456,86.411 120.666,86.723C122.872,87.027 125.151,87.462 127.504,88.03L127.504,93.932C125.233,93.208 123.023,92.705 120.874,92.424C118.716,92.146 116.341,92.008 113.75,92.008C109.547,92.008 105.447,92.517 101.452,93.535C97.448,94.549 93.713,95.99 90.246,97.858ZM90.246,80.23L90.246,73.931C93.739,72.163 97.478,70.839 101.465,69.96C105.452,69.08 109.547,68.638 113.75,68.634C116.151,68.634 118.454,68.785 120.66,69.089C122.869,69.401 125.149,69.841 127.497,70.408L127.497,76.31C125.231,75.582 123.021,75.08 120.867,74.802C118.714,74.521 116.341,74.38 113.75,74.38C109.547,74.38 105.447,74.895 101.452,75.927C97.448,76.954 93.713,78.388 90.246,80.23Z" style="fill:rgb(19,99,41);fill-rule:nonzero;"/>
    </g>
    <g transform="matrix(1,0,0,1,0,-28.9536)">
        <circle cx="30.667" cy="96" r="29.667" style="fill:rgb(211,243,220);stroke:rgb(19,99,41);stroke-width:2px;"/>
    </g>
    <g transform="matrix(1,0,0,1,0,-28.9536)">
        <path d="M47.082,82.503L47.082,86.199C47.082,89.603 39.358,92.36 29.832,92.36C20.306,92.36 12.582,89.603 12.582,86.199L12.582,82.503C12.582,79.099 20.306,76.342 29.832,76.342C39.358,76.342 47.082,79.099 47.082,82.503ZM42.862,92.876C44.464,92.306 45.935,91.574 47.082,90.673L47.082,98.52C47.082,101.924 39.358,104.681 29.832,104.681C20.306,104.681 12.582,101.924 12.582,98.52L12.582,90.673C13.73,91.582 15.2,92.306 16.802,92.876C20.26,94.108 24.865,94.824 29.832,94.824C34.799,94.824 39.404,94.108 42.862,92.876ZM12.582,102.995C13.73,103.903 15.2,104.627 16.802,105.197C20.26,106.429 24.865,107.145 29.832,107.145C34.799,107.145 39.404,106.429 42.862,105.197C44.464,104.627 45.935,103.896 47.082,102.995L47.082,109.61C47.082,113.013 39.358,115.77 29.832,115.77C20.306,115.77 12.582,113.013 12.582,109.61L12.582,102.995Z" style="fill:rgb(19,99,41);fill-rule:nonzero;"/>
    </g>
</svg>
